<?xml version="1.0" standalone="no"?>
<!DOCTYPE svg PUBLIC "-//W3C//DTD SVG 20010904//EN"
 "http://www.w3.org/TR/2001/REC-SVG-20010904/DTD/svg10.dtd">
<svg version="1.0" xmlns="http://www.w3.org/2000/svg"
 width="694.000000pt" height="944.000000pt" viewBox="0 0 694.000000 944.000000"
 preserveAspectRatio="xMidYMid meet">

<g transform="translate(0.000000,944.000000) scale(0.100000,-0.100000)"
fill="#000000" stroke="none">
<path d="M2928 9159 c-203 -20 -445 -88 -633 -178 -501 -240 -868 -679 -1019
-1219 -51 -182 -61 -261 -60 -512 0 -218 2 -244 27 -365 67 -313 187 -571 382
-820 75 -95 197 -218 221 -221 12 -2 9 6 -12 27 -46 48 -23 41 54 -16 39 -30
72 -52 72 -50 0 2 -32 30 -71 61 -73 60 -135 136 -124 155 4 6 0 18 -7 27 -23
26 -33 46 -20 38 7 -4 12 -2 12 4 0 6 5 8 10 5 15 -9 12 -27 -2 -19 -7 4 -5
-1 4 -11 10 -10 26 -19 37 -20 17 -1 13 6 -19 41 -48 52 -53 80 -8 38 18 -16
26 -20 18 -10 -12 15 -12 20 -2 24 8 2 5 13 -13 34 -27 32 -35 59 -9 34 8 -9
18 -16 22 -16 3 0 1 5 -5 11 -13 13 -6 42 9 33 6 -4 7 17 3 55 -4 35 -2 61 3
61 5 0 12 -24 15 -52 8 -66 73 -197 128 -258 22 -25 35 -35 29 -22 -6 12 -8
22 -4 22 9 0 94 -78 95 -88 1 -12 21 -32 31 -32 6 0 5 7 -2 15 -11 13 -10 15
6 9 10 -3 4 4 -14 16 -36 24 -37 39 -2 20 12 -6 24 -9 28 -6 3 3 1 6 -5 6 -6
0 -28 12 -49 26 -32 22 -36 23 -20 5 32 -36 4 -23 -36 16 -21 20 -38 31 -38
24 0 -18 -26 3 -42 33 -11 21 -11 21 11 2 29 -27 51 -29 79 -8 l23 18 -44 32
c-33 23 -45 38 -44 57 0 20 2 23 13 14 8 -6 14 -9 14 -6 0 4 23 -5 51 -19 28
-14 53 -23 56 -20 3 3 -7 10 -22 16 -41 15 -81 47 -106 82 -20 27 -20 29 -3
20 11 -6 28 -20 38 -31 25 -27 85 -65 92 -58 3 3 -12 15 -33 26 -41 20 -70 48
-61 57 3 2 19 -7 36 -21 52 -44 46 -27 -10 26 -29 27 -44 46 -33 40 11 -5 29
-19 39 -30 11 -12 26 -21 35 -21 10 0 4 7 -14 18 -42 26 -61 50 -48 63 8 8 23
3 49 -14 46 -29 74 -93 80 -189 3 -34 9 -68 15 -75 9 -10 8 -13 -2 -13 -10 -1
-8 -4 4 -11 22 -13 22 -30 0 -23 -14 4 -13 2 2 -7 11 -6 21 -13 23 -15 2 -1
-1 -11 -7 -23 -9 -16 -8 -22 6 -30 16 -9 16 -12 3 -21 -10 -6 -11 -10 -3 -10
11 0 56 -73 58 -93 0 -4 15 -16 32 -27 24 -14 33 -16 33 -7 0 8 -3 17 -7 21
-5 4 -8 23 -9 42 -1 32 0 33 18 18 20 -19 24 -29 6 -18 -7 4 -8 3 -4 -5 4 -6
11 -9 16 -6 4 3 11 -2 14 -11 4 -9 9 -14 13 -11 3 4 20 -3 37 -15 17 -12 0 9
-39 46 -67 64 -67 65 -15 24 30 -24 71 -54 90 -66 l35 -23 -34 28 c-19 15 -57
49 -84 74 -42 38 -48 49 -39 64 7 14 6 25 -6 44 l-16 26 21 -19 c15 -12 21
-27 18 -46 -2 -21 4 -34 23 -52 l27 -23 -24 28 c-15 16 -19 27 -12 27 10 0 11
3 2 13 -6 8 -8 17 -5 20 4 4 -1 19 -11 34 -9 15 20 -8 66 -52 l83 -80 -77 84
c-87 94 -103 116 -86 127 13 8 60 -46 54 -62 -2 -6 15 -29 38 -50 22 -22 35
-31 28 -21 -15 20 -2 23 19 5 8 -7 6 -2 -5 11 -18 22 -18 24 -2 18 31 -11 18
2 -16 16 -33 14 -118 107 -97 107 13 0 9 32 -5 42 -6 5 -3 8 7 8 9 0 20 -4 23
-10 3 -5 1 -10 -6 -10 -15 0 18 -38 46 -52 15 -8 13 -3 -8 19 -15 16 -25 32
-22 35 4 3 -5 14 -17 24 -38 30 -45 49 -12 29 24 -14 22 -11 -9 16 -36 33 -50
57 -24 44 6 -4 2 2 -10 13 -23 20 -32 49 -12 36 7 -4 7 1 -1 16 -11 20 -10 21
10 15 20 -6 21 -5 10 15 -19 36 -4 34 24 -4 14 -20 38 -52 52 -71 33 -46 95
-88 118 -79 14 5 9 10 -21 24 -21 9 -45 25 -53 35 -8 11 -10 16 -3 12 26 -16
5 22 -30 53 -79 69 -173 334 -138 389 10 16 26 8 41 -19 9 -17 8 -19 -7 -13
-16 6 -16 4 1 -15 13 -15 15 -22 6 -22 -9 0 -8 -6 5 -20 10 -11 14 -20 10 -20
-5 0 -4 -5 3 -12 19 -19 14 -32 -5 -17 -10 7 -5 -1 11 -19 27 -29 25 -47 -2
-20 -9 9 -12 9 -12 1 0 -7 12 -18 26 -25 15 -7 26 -17 26 -23 0 -5 7 -18 15
-27 9 -10 12 -18 7 -18 -5 0 -2 -6 6 -13 8 -7 23 -24 33 -39 l17 -28 -26 10
c-44 17 -41 10 4 -11 24 -10 41 -23 38 -28 -3 -5 3 -11 14 -14 11 -3 20 -12
20 -21 0 -9 5 -16 11 -16 5 0 8 -4 5 -9 -3 -5 6 -12 19 -15 14 -4 23 -10 20
-15 -2 -5 7 -12 22 -16 21 -5 24 -8 12 -16 -11 -7 -11 -9 4 -9 45 0 162 -62
209 -110 47 -48 54 -65 14 -35 -11 8 -25 15 -30 15 -14 -1 84 -64 157 -101 31
-16 57 -31 57 -34 0 -6 -40 9 -90 35 -22 11 -40 18 -40 15 0 -3 37 -23 81 -45
88 -43 118 -62 55 -36 -62 26 -56 18 14 -18 56 -29 61 -34 42 -40 -29 -10 -28
-20 6 -34 l27 -12 -30 6 c-29 5 -29 5 -10 -10 11 -8 16 -16 12 -16 -26 -1 73
-70 101 -70 39 0 53 32 46 104 l-7 66 -81 41 c-45 23 -99 53 -121 68 -94 63
-84 48 15 -23 35 -25 60 -46 56 -46 -17 0 -218 134 -207 138 6 2 -8 21 -31 42
-24 21 -40 41 -36 45 4 5 16 2 25 -6 16 -13 17 -12 4 4 -15 20 -38 22 -43 5
-3 -7 -10 -8 -17 -4 -11 7 -11 10 0 18 10 7 8 8 -8 3 -13 -3 -25 -1 -30 8 -4
7 -29 25 -54 39 -50 30 -74 53 -62 61 11 7 35 -7 35 -19 -1 -5 6 -8 15 -6 8 2
12 -1 9 -7 -8 -12 46 -42 81 -46 12 -1 23 -1 23 1 0 9 -77 41 -89 36 -8 -2
-11 0 -8 5 4 6 -12 23 -34 37 -22 15 -38 33 -36 39 2 7 -3 21 -12 31 -13 17
-11 16 17 -3 35 -25 42 -37 15 -27 -11 4 -9 -1 6 -13 38 -29 85 -55 77 -42 -9
14 -1 14 25 1 10 -6 19 -8 19 -6 0 3 -14 13 -30 21 -17 9 -28 20 -25 25 3 5
-3 11 -12 14 -10 4 -29 16 -43 27 l-25 20 33 -16 c17 -8 32 -13 32 -11 0 3 21
-4 46 -15 25 -12 48 -18 51 -15 4 3 4 7 2 9 -2 2 -26 19 -54 39 -27 20 -61 49
-75 64 -14 16 -17 23 -8 15 9 -7 21 -10 26 -7 5 3 23 -4 38 -16 44 -33 52 -42
29 -34 -16 5 -15 2 5 -14 14 -11 29 -20 34 -20 6 0 1 7 -10 16 -18 14 -18 15
6 9 17 -5 11 2 -20 23 -45 29 -100 82 -86 82 5 0 25 -13 45 -28 20 -16 52 -39
71 -52 l35 -24 -22 25 c-29 32 -29 43 -2 28 24 -12 50 3 28 16 -8 5 -10 4 -5
-3 13 -22 -15 -12 -40 13 -20 20 -23 29 -15 44 6 10 7 21 4 25 -3 3 -2 6 4 6
6 0 30 -16 53 -35 61 -51 61 -43 1 11 -47 43 -80 84 -66 84 3 0 29 -21 58 -47
29 -27 43 -38 33 -25 -23 26 -11 29 19 5 12 -10 1 1 -23 25 -59 56 -47 66 13
11 30 -27 49 -39 56 -32 6 6 0 18 -16 33 -23 21 -25 22 -19 5 7 -18 6 -18 -9
-6 -9 7 -15 17 -12 21 5 9 -39 52 -47 45 -2 -3 -13 5 -24 17 l-19 23 21 -18
c17 -14 23 -15 27 -5 3 9 21 -2 54 -32 28 -26 22 -18 -14 19 -35 35 -61 66
-59 69 3 2 33 -22 68 -54 34 -33 56 -51 49 -41 -15 20 -2 23 19 5 8 -7 5 -1
-8 13 -25 29 -30 48 -7 29 12 -10 15 -10 15 0 0 8 9 7 28 -5 l27 -18 -19 21
c-11 12 -15 22 -11 22 11 0 -46 52 -59 54 -6 1 -17 5 -23 9 -8 5 -13 3 -13 -4
0 -7 -8 -5 -20 6 -14 13 -17 21 -9 26 6 4 8 12 4 19 -5 8 -4 11 2 7 14 -9 24
18 17 41 -3 9 15 -5 41 -33 l47 -50 -36 47 c-49 63 -45 69 10 13 61 -61 69
-50 11 16 -52 59 -54 80 -4 31 18 -18 37 -32 42 -32 6 0 2 5 -7 11 -10 5 -18
14 -18 19 0 5 8 7 18 3 13 -5 11 0 -7 20 -14 15 -20 27 -15 27 14 0 15 38 2
46 -8 5 -9 1 -4 -12 4 -10 3 -15 -1 -10 -4 4 -8 18 -8 32 -1 22 0 23 19 6 19
-17 19 -17 3 8 -21 30 -22 53 -2 26 20 -26 19 -6 -1 22 -14 20 -14 22 0 22 18
0 23 -18 30 -111 3 -36 14 -90 25 -120 21 -54 84 -143 110 -154 11 -4 12 -3 1
10 -7 8 -8 15 -3 15 13 0 78 -70 93 -100 11 -22 8 -21 -24 9 -19 19 -38 32
-41 30 -2 -3 16 -25 41 -50 29 -27 48 -39 51 -32 3 10 8 9 20 -3 29 -28 48
-13 47 37 0 40 -7 55 -51 110 -28 35 -57 78 -66 95 -19 37 -24 96 -12 139 8
27 7 29 -9 16 -15 -13 -16 -12 -7 12 6 15 18 38 26 51 15 23 15 24 -3 19 -14
-3 -21 2 -25 16 -3 12 0 24 5 28 7 4 8 1 3 -8 -5 -8 2 -5 14 6 43 38 87 154
63 169 -20 12 -45 -56 -44 -124 0 -20 -1 -21 -9 -8 -6 10 -6 33 0 58 6 26 6
53 -1 73 -5 18 -11 41 -13 52 -4 32 -42 89 -48 73 -3 -7 -5 -2 -4 12 0 14 0
49 -1 79 -2 46 -4 52 -17 41 -8 -7 -15 -21 -15 -31 0 -11 -4 -19 -10 -19 -16
0 -12 -21 15 -79 15 -31 19 -49 11 -42 -8 7 -16 8 -18 4 -3 -4 -4 -3 -2 3 1 5
-4 21 -12 35 -17 31 -17 97 1 129 8 14 14 48 13 75 -1 46 -2 46 -5 10 -6 -60
-10 -70 -28 -55 -13 10 -15 9 -15 -9 0 -12 -4 -20 -9 -16 -5 3 -15 -11 -21
-31 -9 -26 -15 -33 -23 -25 -20 20 -46 12 -53 -16 -3 -16 -10 -43 -16 -61 -13
-45 -5 -62 32 -62 16 0 30 -4 30 -10 0 -5 16 -17 36 -25 46 -19 50 -19 33 2
-12 15 -12 16 3 10 13 -4 9 5 -12 35 -30 41 -40 75 -18 62 7 -4 8 -3 4 5 -9
14 2 53 13 46 5 -2 6 -16 4 -29 -5 -26 24 -83 55 -107 16 -13 16 -13 2 6 -14
19 -14 19 3 6 9 -8 15 -16 13 -18 -3 -3 9 -27 26 -54 22 -36 28 -57 24 -75 -4
-14 -3 -30 1 -37 4 -6 8 -20 8 -29 2 -17 0 -17 -22 -3 -24 16 -28 11 -23 -24
1 -13 -1 -13 -15 -1 -25 21 -48 22 -40 2 3 -8 -10 1 -30 22 -19 21 -35 47 -36
59 0 21 -1 21 -9 2 -5 -11 -9 -27 -9 -35 -1 -13 0 -13 9 0 6 9 10 10 10 3 0
-6 -4 -15 -10 -18 -10 -6 -39 55 -41 89 -1 16 -3 13 -9 -9 -8 -30 -8 -30 -9 8
0 21 -5 36 -10 33 -5 -4 -11 -2 -13 3 -1 5 -10 11 -18 13 -8 2 -25 16 -36 31
-15 19 -23 24 -26 15 -3 -7 -8 2 -13 21 -5 25 -10 30 -16 20 -8 -12 -11 -12
-19 1 -5 8 -10 24 -10 35 0 11 -5 27 -11 35 -8 12 -9 9 -4 -10 5 -19 4 -21 -4
-10 -5 8 -8 32 -6 53 3 32 1 37 -10 27 -12 -10 -13 -7 -5 20 8 27 7 30 -5 20
-9 -7 -15 -8 -15 -2 0 5 7 15 15 22 17 14 21 35 5 25 -5 -3 -10 -1 -10 5 0 6
7 13 15 16 8 4 15 10 15 16 0 5 -6 6 -12 2 -9 -5 -9 -2 1 9 11 14 11 17 0 17
-7 0 -3 10 11 25 13 14 19 25 13 25 -6 0 -16 -7 -23 -15 -7 -9 -15 -13 -17
-11 -3 3 10 19 29 37 18 17 25 26 15 19 -33 -24 -31 0 4 36 31 32 86 70 99 67
3 -1 19 -3 35 -6 17 -3 42 -10 56 -15 31 -12 87 -80 99 -120 l8 -27 1 28 c1
15 6 27 12 27 6 0 8 9 4 21 -5 16 -4 19 6 14 9 -6 11 -3 6 8 -11 28 2 19 23
-15 11 -18 20 -28 20 -23 0 30 -45 77 -99 105 -65 32 -82 53 -83 102 -1 30 -6
26 -127 -98 -69 -70 -129 -127 -133 -126 -9 2 -106 -134 -119 -166 -5 -13 -20
-38 -33 -55 -59 -78 -90 -143 -100 -212 -8 -51 -15 -71 -27 -73 -18 -3 -134
98 -150 132 -5 12 8 1 30 -22 39 -43 61 -48 61 -14 0 15 2 15 10 2 9 -13 10
-13 10 1 0 15 61 102 67 95 2 -1 -11 -31 -28 -65 -17 -34 -29 -65 -25 -68 3
-3 10 7 16 23 6 16 20 47 32 69 11 22 22 51 24 64 l2 23 -23 -22 -24 -22 -27
28 c-30 34 -42 58 -60 134 l-14 55 4 -85 c3 -63 9 -97 25 -128 12 -23 19 -42
16 -42 -11 0 -46 83 -55 130 -6 30 -6 96 -1 166 7 91 6 129 -6 177 -10 44 -13
84 -8 137 4 41 6 91 4 110 -1 19 -3 65 -3 102 0 37 -4 62 -8 55 -4 -7 -8 -20
-8 -29 0 -9 -4 -19 -9 -23 -6 -3 -6 6 -1 24 25 88 70 141 162 187 28 14 86 59
128 99 81 77 90 81 233 101 26 3 64 18 85 31 27 19 33 21 22 7 -14 -18 -14
-18 3 -5 10 8 16 20 13 28 -3 8 -2 11 4 8 5 -3 14 4 20 15 21 39 66 53 149 45
42 -4 110 -8 152 -9 70 -2 82 -5 137 -39 l60 -37 110 3 109 2 72 -49 c39 -27
70 -51 67 -53 -10 -10 -67 10 -108 38 l-43 30 40 -36 c35 -32 37 -36 15 -30
-14 3 -20 3 -14 -2 16 -11 13 -43 -3 -43 -8 0 -28 7 -46 17 -24 12 -29 12 -21
2 9 -11 9 -17 -2 -27 -11 -10 -23 -3 -69 38 -30 27 -58 50 -61 50 -3 0 20 -23
51 -51 30 -29 54 -54 51 -56 -7 -8 -50 18 -74 46 l-24 26 22 -32 c12 -18 17
-33 12 -33 -6 0 -22 15 -37 33 -15 17 -35 36 -44 40 -9 5 7 -14 36 -42 28 -28
57 -51 65 -51 10 0 9 3 -2 10 -9 6 -10 10 -3 10 6 0 15 -5 18 -10 10 -16 -22
-23 -47 -9 -21 11 -22 11 -9 -4 11 -15 11 -17 -2 -17 -16 0 -101 90 -92 98 3
3 17 -5 32 -19 28 -24 28 -24 8 -1 -22 26 -63 52 -51 33 4 -6 2 -11 -4 -11
-19 0 74 -99 102 -109 18 -6 28 -6 28 0 0 5 11 9 25 9 16 0 25 -6 25 -15 0
-19 5 -19 35 1 14 9 22 21 18 27 -3 5 -1 7 4 4 6 -4 36 2 68 13 31 11 85 22
119 26 58 6 63 5 102 -27 52 -42 97 -96 90 -107 -3 -5 5 -17 17 -27 15 -13 17
-20 9 -23 -9 -3 -8 -8 5 -18 14 -11 15 -13 3 -14 -12 0 -11 -3 3 -11 9 -5 17
-15 17 -20 0 -6 -4 -7 -10 -4 -5 3 -10 1 -10 -5 0 -6 7 -13 15 -16 8 -4 15
-10 15 -16 0 -5 -6 -6 -12 -2 -7 4 -4 -2 6 -14 11 -12 15 -22 9 -22 -13 0 -9
-40 7 -70 6 -12 9 -24 6 -28 -3 -3 -6 -1 -6 4 0 6 -7 19 -15 30 -13 17 -13 15
-1 -16 27 -68 29 -80 12 -74 -14 5 -14 2 -1 -29 8 -20 19 -86 25 -148 5 -61
14 -116 19 -123 17 -20 131 -256 156 -322 21 -55 22 -64 9 -75 -12 -10 -23
-10 -46 -1 -16 6 -36 8 -43 6 -10 -4 -13 2 -11 21 3 19 0 23 -7 16 -15 -15
-30 -14 -21 2 6 8 3 8 -9 -1 -9 -8 -21 -11 -26 -8 -6 4 -19 2 -31 -4 -11 -5
-30 -15 -41 -21 -29 -15 -41 4 -35 54 2 20 0 37 -5 37 -11 0 -24 -25 -52 -103
l-24 -65 38 25 c21 14 36 31 33 37 -3 6 0 4 8 -5 7 -9 31 -19 52 -23 27 -5 51
-20 77 -48 40 -41 48 -63 27 -70 -17 -6 -114 -1 -126 6 -11 7 -62 -84 -62
-111 0 -11 14 -32 32 -49 17 -16 27 -22 23 -14 -5 8 -8 26 -7 41 1 15 -4 32
-12 38 -8 6 -12 21 -9 32 5 18 11 20 61 14 31 -3 62 -11 69 -17 22 -18 11 -50
-22 -68 -33 -18 -42 -56 -12 -54 20 2 73 -61 82 -99 4 -15 1 -56 -6 -92 l-13
-65 32 -44 c27 -38 31 -48 22 -70 -8 -22 -6 -28 10 -38 28 -18 25 -31 -2 -17
-22 11 -22 11 2 -16 18 -20 20 -26 8 -22 -12 4 -15 2 -11 -9 3 -7 9 -14 14
-14 5 0 9 -5 9 -12 0 -9 -3 -9 -12 0 -20 20 -32 13 -13 -8 19 -21 7 -28 -13
-8 -9 9 -15 9 -23 1 -8 -8 -8 -13 0 -17 6 -4 11 -2 11 5 0 8 4 8 15 -1 8 -7
15 -17 15 -22 0 -6 -5 -6 -14 1 -11 9 -13 6 -10 -16 l4 -28 -11 27 c-14 35
-40 46 -38 15 5 -52 -3 -62 -17 -22 -13 37 -13 37 -9 8 2 -18 2 -33 0 -33 -3
0 -12 15 -20 33 -8 17 -13 23 -9 12 3 -11 8 -37 11 -57 7 -45 -12 -53 -22 -10
-3 16 -12 29 -19 29 -11 0 -11 -6 0 -33 16 -39 18 -74 4 -74 -5 0 -10 -9 -10
-20 0 -29 -44 -70 -75 -70 -14 0 -34 9 -46 21 -23 23 -18 39 6 19 22 -18 45
-5 45 27 0 34 -34 93 -54 93 -18 0 -26 23 -31 87 -2 29 -9 62 -15 73 -6 11
-10 26 -8 33 1 6 -10 31 -25 54 -15 24 -27 51 -27 62 0 10 -18 57 -40 103 -40
83 -40 84 -28 142 l11 60 -65 60 c-37 34 -73 75 -81 91 -18 39 -32 127 -16
105 9 -12 10 -11 4 5 -4 11 -9 25 -12 32 -3 9 4 8 25 -3 30 -15 50 -44 30 -44
-7 0 -6 -5 2 -15 7 -8 17 -12 23 -8 5 3 7 1 4 -4 -7 -11 37 -77 66 -101 21
-18 50 -22 59 -8 4 6 8 -4 8 -23 0 -19 3 -31 7 -27 4 4 6 22 5 40 -1 19 4 52
11 73 12 35 12 39 -2 38 -9 0 -22 -4 -28 -8 -6 -4 -14 -3 -17 2 -10 16 12 60
54 110 22 26 40 54 40 62 0 12 -2 12 -10 -1 -5 -8 -10 -11 -10 -6 0 5 -10 1
-22 -10 -21 -19 -21 -19 -14 1 4 11 -7 3 -25 -18 -17 -21 -34 -36 -37 -33 -3
3 3 16 14 28 10 13 -1 5 -25 -17 -24 -22 -41 -32 -38 -23 3 10 0 24 -7 31 -12
11 -11 15 6 26 19 12 19 13 3 31 -10 11 -14 24 -9 32 4 7 9 21 9 30 2 17 1 17
-18 1 -20 -17 -20 -17 -13 1 6 17 5 17 -11 5 -15 -12 -16 -12 -10 3 4 13 2 15
-11 11 -16 -6 -16 -5 1 14 19 22 23 38 5 27 -8 -5 -9 -2 -5 10 4 10 7 22 7 27
0 6 5 7 12 3 7 -4 8 -3 4 5 -6 9 -11 9 -24 -1 -14 -12 -14 -10 -3 10 6 12 8
22 2 22 -5 0 -11 -7 -15 -15 -3 -8 -11 -15 -18 -15 -6 0 0 13 15 28 28 29 36
49 15 35 -19 -11 -38 -12 -38 -2 0 5 4 9 10 9 5 0 7 7 4 15 -4 8 -12 15 -19
15 -8 0 -17 9 -20 20 -3 11 -17 23 -30 26 -12 3 -22 12 -21 20 1 8 41 52 88
99 89 88 101 103 44 60 -50 -38 -67 -29 -21 11 22 19 31 32 21 28 -14 -5 -17
-4 -12 4 11 19 -9 14 -27 -6 -22 -24 -22 -38 1 -21 15 13 16 12 3 -4 -10 -12
-17 -15 -25 -7 -7 7 -1 19 19 40 16 16 26 32 23 36 -11 11 -46 -15 -68 -51
-24 -39 -40 -42 -19 -3 7 12 12 28 11 35 -1 6 2 14 8 18 6 4 7 -1 3 -12 -5
-14 -1 -13 20 6 32 29 34 36 7 21 -25 -13 -26 -3 -2 23 9 11 11 17 4 13 -8 -5
-27 -29 -43 -54 -16 -25 -30 -42 -30 -36 -8 55 -5 95 8 111 13 16 14 17 9 1
-8 -25 -3 -22 24 15 22 30 22 31 2 13 -28 -24 -28 -13 -1 25 11 16 17 29 13
29 -4 0 5 14 22 32 l29 31 -33 -22 c-19 -13 -31 -29 -28 -36 3 -8 -1 -18 -8
-25 -10 -8 -15 -7 -19 4 -3 7 8 26 24 42 16 15 27 30 24 33 -3 2 -18 -8 -33
-22 l-28 -27 4 84 c3 51 0 98 -8 120 -12 39 -6 61 10 36 8 -12 10 -10 10 8 0
23 19 32 21 10 0 -7 5 -2 10 11 15 37 23 17 30 -77 l7 -87 -2 98 c-1 64 2 96
9 94 5 -2 13 -17 16 -33 l7 -29 1 29 c2 44 10 26 20 -40 6 -43 9 -50 10 -24 0
19 -3 51 -9 70 -6 20 -6 38 -1 43 15 15 33 -64 29 -130 -1 -34 0 -59 5 -56 4
2 8 34 9 71 l1 67 6 -60 c4 -36 9 -55 14 -48 9 15 -7 113 -23 144 -13 24 -8
34 14 26 8 -3 18 -23 22 -44 7 -35 8 -36 15 -13 5 19 7 20 8 6 1 -11 4 -17 7
-14 3 4 1 22 -4 42 -6 21 -7 36 -1 36 5 0 9 -1 9 -2 0 -2 7 -21 15 -43 l15
-40 -3 43 c-3 52 12 50 33 -4 8 -22 25 -53 38 -70 19 -25 18 -20 -8 39 -35 81
-36 87 -12 87 21 0 52 -31 75 -75 9 -16 16 -25 17 -19 0 6 -14 32 -32 59 l-32
48 -75 -6 c-84 -6 -140 -22 -249 -73 -41 -19 -77 -34 -82 -34 -4 0 -13 -7 -21
-16 -7 -9 -38 -29 -68 -45 -98 -52 -261 -155 -261 -165 0 -7 20 4 43 24 27 24
33 5 13 -46 -48 -125 -46 -117 -32 -172 7 -28 19 -57 26 -63 10 -10 11 -8 5 8
-4 11 -12 39 -17 62 -9 39 -7 48 21 97 22 38 31 66 31 100 0 55 15 60 29 10
11 -41 10 -46 -35 -139 -31 -64 -33 -73 -23 -110 6 -22 15 -44 19 -49 5 -5 2
13 -5 39 -14 44 -13 51 5 93 24 53 34 52 19 -1 -11 -42 -9 -119 4 -115 5 2 15
-10 23 -27 10 -22 12 -23 6 -5 -9 33 -9 108 1 145 5 16 6 27 2 23 -4 -3 -13
-28 -21 -55 l-14 -48 5 45 c3 24 16 60 27 79 17 27 22 50 22 113 0 43 3 78 7
78 15 0 21 -87 10 -145 -13 -71 -13 -68 0 -59 7 4 9 0 6 -12 -15 -52 -17 -117
-6 -156 7 -24 13 -47 14 -53 0 -5 6 -23 13 -38 7 -16 11 -40 11 -55 -2 -24 -2
-24 -6 -4 -2 12 -9 22 -14 22 -5 0 -6 -37 -3 -88 4 -55 3 -96 -4 -107 -8 -15
-9 -8 -6 31 l3 49 -9 -49 c-11 -59 -2 -86 49 -146 53 -63 64 -87 72 -150 l6
-55 2 48 c1 55 -19 102 -73 166 -20 24 -36 48 -36 54 0 7 12 -3 26 -21 14 -18
29 -30 34 -27 11 7 63 -54 79 -93 11 -27 15 -30 25 -17 28 37 111 -30 88 -71
-8 -14 -10 -12 -16 11 -4 15 -9 25 -12 23 -2 -3 7 -38 20 -79 13 -41 23 -75
21 -77 -2 -2 -6 6 -10 17 -9 29 -25 26 -25 -4 0 -14 3 -25 8 -25 4 0 8 -14 8
-32 1 -29 0 -30 -12 -13 -8 10 -14 33 -14 49 -1 29 -2 28 -16 -13 -13 -35 -13
-49 -3 -72 6 -16 16 -32 21 -35 6 -4 5 3 -1 14 -15 28 -14 31 7 28 9 -2 17 -9
17 -17 1 -22 15 -40 27 -33 7 4 8 2 4 -4 -4 -7 0 -22 8 -34 9 -12 16 -17 16
-11 0 7 -4 15 -10 18 -13 8 -13 25 0 25 20 0 45 -68 50 -138 4 -56 2 -69 -7
-57 -6 9 -14 43 -18 76 -4 33 -9 58 -12 55 -3 -3 -16 9 -28 27 -12 18 -27 31
-33 30 -6 -2 -23 12 -37 31 -28 36 -31 72 -13 139 12 48 4 93 -12 67 -6 -8
-10 -27 -10 -42 0 -18 -5 -28 -15 -28 -11 0 -15 -11 -15 -37 0 -64 19 -109 67
-163 41 -46 46 -57 47 -101 1 -47 4 -52 62 -106 34 -32 63 -64 66 -72 2 -8 9
-11 16 -7 17 10 15 72 -5 109 -9 18 -16 52 -16 77 0 25 -2 35 -4 23 -7 -36
-23 -27 -23 12 0 46 -20 93 -64 151 -54 71 -43 76 19 9 33 -36 61 -78 70 -105
14 -40 15 -41 10 -10 -4 26 -2 31 5 20 6 -8 7 -37 4 -66 -6 -55 1 -78 42 -127
31 -37 32 -117 1 -117 -7 0 -7 4 1 12 26 26 10 30 -18 3 l-29 -28 -20 34 c-11
19 -46 57 -77 84 -71 61 -59 35 14 -30 56 -51 70 -81 52 -114 -17 -34 -33 -26
-26 13 4 19 2 37 -3 40 -5 3 -7 -2 -4 -13 10 -38 -14 -28 -61 25 -34 39 -45
58 -37 65 6 5 9 6 6 2 -8 -10 47 -63 58 -56 6 3 8 2 4 -3 -3 -5 1 -20 9 -34
l13 -25 -2 30 c-1 21 -14 42 -43 68 -23 20 -43 34 -46 31 -3 -2 -8 2 -12 11
-4 11 -2 14 6 9 8 -5 9 -2 5 10 -4 10 -7 23 -7 30 0 7 -7 13 -15 13 -38 0 -6
-95 55 -164 22 -25 40 -51 40 -56 0 -6 -14 8 -31 31 -17 23 -34 42 -39 42 -4
0 -17 15 -29 33 l-20 32 -12 -32 c-21 -61 -39 -33 -20 32 15 54 -12 118 -74
171 -65 57 -89 102 -82 155 8 61 -33 49 -48 -14 -11 -43 2 -90 47 -158 50 -79
62 -112 53 -147 -8 -26 -8 -25 -16 16 -9 48 -20 73 -67 147 -43 68 -46 160 -8
233 10 19 15 40 12 48 -3 8 -1 14 4 14 6 0 10 7 10 16 0 14 -2 14 -15 0 -8 -8
-12 -21 -9 -29 7 -20 -14 -60 -27 -51 -13 8 -40 -16 -32 -29 4 -6 11 -3 20 8
11 17 12 13 6 -30 -3 -28 -6 -70 -6 -95 1 -36 -1 -40 -7 -20 l-8 25 -2 -25
c-1 -14 -4 -20 -6 -13 -3 6 2 39 11 73 9 34 14 65 11 68 -3 3 -6 0 -6 -7 0 -8
-19 -31 -42 -52 -41 -37 -42 -40 -40 -93 3 -73 11 -91 70 -154 32 -34 54 -70
62 -98 7 -24 16 -44 21 -44 4 0 2 -15 -5 -32 -12 -30 -11 -38 11 -83 l25 -50
-6 45 c-5 32 -3 41 4 30 5 -8 10 -22 10 -31 0 -9 6 -22 14 -28 11 -9 15 -6 20
14 4 14 4 31 0 37 -5 7 -3 8 5 4 8 -6 10 -21 6 -47 -6 -33 -3 -43 19 -66 14
-16 36 -44 49 -63 18 -27 30 -35 53 -34 17 0 36 -8 46 -20 24 -29 22 -37 -8
-26 -14 6 -31 10 -39 10 -14 0 -55 -71 -55 -96 0 -14 61 -86 206 -243 33 -37
72 -91 86 -121 90 -193 119 -250 126 -250 11 0 -146 315 -184 370 -44 63 -64
105 -64 132 0 13 4 18 8 12 4 -6 15 -13 24 -17 10 -3 31 -32 47 -65 16 -32 37
-65 47 -73 10 -8 35 -52 57 -99 41 -89 116 -210 129 -210 4 0 -8 22 -27 48
-19 27 -55 91 -81 143 -25 52 -64 118 -85 148 -22 30 -39 59 -39 64 0 5 20
-18 44 -51 24 -33 50 -63 56 -67 7 -4 23 -33 37 -64 36 -83 79 -146 121 -177
20 -16 32 -22 26 -14 -6 8 -31 42 -56 75 -25 33 -58 85 -73 115 -15 30 -36 67
-46 82 -11 14 -19 29 -19 33 0 17 27 -16 77 -94 59 -91 96 -135 154 -182 l36
-28 88 55 c124 78 195 134 314 249 283 274 463 603 548 1000 25 121 27 147 27
365 1 258 -9 334 -65 530 -256 892 -1105 1468 -2031 1379z m722 -759 c-8 -5
-19 -10 -25 -10 -5 0 -3 5 5 10 8 5 20 10 25 10 6 0 3 -5 -5 -10z m99 -80 c0
-10 -3 -8 -9 5 -12 27 -12 43 0 25 5 -8 9 -22 9 -30z m-275 -102 c13 -51 6
-158 -15 -214 -14 -36 -18 -59 -12 -65 15 -15 54 83 63 160 l9 66 -4 -70 c-2
-38 0 -77 5 -85 4 -9 0 -27 -12 -45 -11 -16 -17 -22 -14 -12 19 57 14 64 -8
12 -14 -33 -26 -67 -27 -75 -1 -8 -5 -4 -9 10 -7 21 -8 22 -10 5 l-1 -20 -8
20 c-16 38 -43 -85 -37 -163 5 -55 4 -62 -5 -42 -6 14 -12 54 -13 89 -1 54 -2
59 -10 32 -5 -18 -5 -50 1 -81 7 -36 7 -48 0 -41 -22 22 -19 115 7 221 27 110
33 200 16 246 -6 15 -8 29 -5 33 11 11 24 -23 30 -83 3 -34 8 -74 11 -91 3
-22 2 -25 -4 -10 -8 16 -10 14 -15 -15 -14 -68 12 -51 37 25 18 59 22 103 11
168 -7 48 7 68 19 25z m-40 -40 c8 -45 10 -78 6 -108 -1 -14 -6 0 -10 30 -4
30 -11 67 -15 83 -4 17 -3 27 3 27 6 0 14 -15 16 -32z m-83 -71 c11 -41 7
-135 -7 -172 -6 -14 -4 -16 6 -10 10 6 11 2 5 -21 -4 -16 -10 -62 -14 -102 -3
-40 -10 -73 -16 -75 -5 -1 -15 18 -22 43 -12 40 -11 58 8 155 15 77 20 129 16
173 -7 71 6 76 24 9z m-1115 -134 c-19 -218 -18 -238 4 -317 23 -83 21 -108
-12 -183 -24 -55 -19 -107 18 -173 14 -25 18 -36 9 -25 -29 34 -75 139 -75
170 -1 28 -2 29 -14 12 -20 -25 -25 -12 -36 94 -5 52 -14 110 -20 129 -5 19
-10 42 -10 50 1 25 48 -131 55 -184 6 -47 7 -48 22 -26 22 32 18 89 -13 161
-26 62 -26 67 -15 145 6 44 11 100 11 125 0 24 5 51 11 59 7 11 9 -26 4 -128
-6 -139 -6 -146 21 -219 27 -75 27 -75 11 -141 -8 -37 -14 -68 -12 -70 6 -6
45 85 45 105 0 10 -11 59 -25 108 -28 103 -31 155 -10 240 8 33 14 77 15 98 0
20 5 37 11 37 7 0 9 -22 5 -67z m956 25 c-8 -8 -9 -4 -5 13 4 13 8 18 11 10 2
-7 -1 -18 -6 -23z m328 -62 c-12 -20 -19 -44 -16 -53 3 -10 2 -24 -2 -30 -5
-8 -9 2 -9 25 -1 35 33 110 44 98 3 -3 -5 -21 -17 -40z m-153 12 c-3 -8 -6 -5
-6 6 -1 11 2 17 5 13 3 -3 4 -12 1 -19z m-1233 -40 c-4 -24 -14 -56 -22 -73
-8 -16 -19 -41 -24 -55 -5 -17 -7 -8 -4 31 4 49 37 139 51 139 3 0 2 -19 -1
-42z m1347 1 c-5 -13 -10 -19 -10 -12 -1 15 10 45 15 40 3 -2 0 -15 -5 -28z
m-840 -330 c-12 -19 -20 -45 -20 -59 l1 -25 8 25 c6 18 8 8 9 -40 1 -77 16
-134 43 -173 11 -16 18 -30 15 -33 -6 -7 -40 43 -55 81 -7 17 -16 55 -20 85
l-9 55 -7 -46 c-15 -88 25 -172 104 -221 43 -27 51 -37 57 -70 3 -22 16 -55
30 -74 13 -20 21 -39 18 -44 -3 -4 1 -11 7 -13 10 -4 10 -6 0 -6 -21 -1 -82
64 -82 87 0 12 -5 24 -10 27 -16 10 -1 -45 21 -75 17 -26 38 -39 94 -62 l30
-12 -30 -4 c-58 -8 -122 51 -126 115 -1 16 -2 16 -6 1 -7 -27 26 -86 58 -105
31 -19 38 -33 14 -33 -48 0 -95 54 -95 109 0 45 -16 38 -29 -13 -19 -76 15
-125 93 -133 48 -6 53 -22 8 -24 l-27 -1 25 -9 c18 -6 5 -8 -44 -6 -65 3 -70
5 -102 40 -28 30 -34 45 -34 79 1 24 7 54 15 68 14 24 14 22 15 -38 0 -76 11
-99 55 -118 49 -20 53 -17 14 9 -19 12 -40 36 -48 51 -12 25 -11 36 3 80 10
28 19 56 22 62 4 10 -35 34 -55 34 -5 0 -11 -17 -13 -37 -3 -21 -11 -59 -18
-84 -18 -64 -8 -93 50 -136 27 -20 48 -39 45 -41 -8 -9 -73 20 -93 41 -12 13
-28 41 -36 62 l-15 40 0 -33 c-2 -66 29 -100 119 -134 l45 -16 -45 -2 -45 -2
35 -11 35 -11 -38 -4 c-66 -6 -137 59 -137 125 0 19 -3 24 -9 15 -15 -24 1
-64 40 -103 43 -43 40 -49 -8 -19 -38 23 -55 51 -63 105 l-6 40 -12 -39 c-19
-66 18 -111 108 -132 19 -4 47 -6 62 -5 14 1 29 -2 33 -8 8 -14 -87 -15 -137
-1 -21 6 -50 26 -68 47 -33 37 -36 64 -15 133 8 25 8 25 -13 6 -27 -23 -36
-65 -22 -101 15 -39 5 -43 -14 -6 -24 45 -20 112 7 150 12 17 34 48 49 69 19
26 30 59 38 117 7 44 16 89 20 100 13 31 12 -77 -1 -154 -11 -61 -16 -70 -63
-113 -28 -27 -46 -48 -41 -48 19 0 104 94 120 133 11 28 14 58 10 120 -4 80
-4 81 9 42 22 -61 20 -163 -4 -210 -24 -46 -20 -57 6 -18 15 23 19 46 19 123
l0 96 24 -29 c13 -15 37 -34 55 -43 17 -8 23 -9 12 -2 -71 49 -106 103 -105
163 l1 30 7 -30 c17 -68 55 -117 101 -130 21 -6 20 -4 -7 14 -18 11 -39 31
-47 44 -23 34 -36 119 -28 169 l8 43 7 -60 c8 -64 46 -154 75 -176 15 -13 15
-12 -1 11 -31 44 -40 74 -45 143 -6 93 4 149 36 190 33 43 40 41 13 -4z m383
-265 c3 -8 2 -12 -4 -9 -6 3 -10 10 -10 16 0 14 7 11 14 -7z m-34 -56 c0 -18
-18 -6 -30 20 -23 45 -23 48 4 17 14 -16 26 -33 26 -37z m-546 -35 c-11 -94
-27 -145 -59 -187 -17 -23 -37 -51 -43 -61 -11 -19 -11 -19 -12 3 0 13 18 52
39 88 28 46 43 86 51 135 13 77 33 95 24 22z m1358 -22 c-22 -27 -42 -47 -46
-44 -3 3 -9 -8 -12 -26 -5 -22 -10 -29 -17 -22 -7 7 -7 19 2 37 9 21 9 29 0
34 -8 6 -8 9 0 14 6 4 11 1 11 -6 0 -7 13 3 30 22 17 21 29 29 30 20 0 -10 5
-7 16 8 9 13 18 21 21 18 3 -2 -13 -27 -35 -55z m-641 -108 c-12 -20 -14 -14
-5 12 4 9 9 14 11 11 3 -2 0 -13 -6 -23z m637 -34 c-6 -16 -12 -28 -14 -26 -5
5 13 57 20 57 3 0 0 -14 -6 -31z m-918 -49 c0 -13 -11 -13 -30 0 -12 8 -11 10
8 10 12 0 22 -4 22 -10z m660 -55 c0 -5 -5 -3 -10 5 -8 12 -10 12 -10 1 0 -8
-2 -12 -5 -9 -3 3 -2 13 1 22 5 14 9 15 15 4 5 -7 9 -17 9 -23z m135 -34 c-3
-3 -18 8 -33 23 l-27 29 32 -23 c18 -13 30 -26 28 -29z m-84 7 l23 -33 -27 24
c-15 14 -27 28 -27 33 0 15 8 8 31 -24z m-1286 -87 c19 -38 71 -81 107 -88 37
-7 47 -23 14 -23 -84 0 -143 64 -151 162 -4 50 -4 51 5 15 5 -21 16 -50 25
-66z m1415 48 c0 -18 -17 -16 -29 3 -10 16 -10 18 0 12 9 -5 11 -2 6 12 -7 18
-7 18 8 0 8 -11 15 -23 15 -27z m-527 -24 c4 -29 22 -68 52 -113 28 -42 48
-84 50 -108 4 -31 3 -34 -4 -13 -4 14 -29 53 -54 88 -47 63 -67 112 -67 164 0
44 17 31 23 -18z m-308 23 c5 4 5 2 1 -5 -3 -6 -2 -14 4 -18 5 -3 10 -11 10
-17 0 -6 -11 -1 -25 12 -26 24 -36 51 -12 31 8 -6 18 -7 22 -3z m347 -47 c6
10 7 7 3 -10 -5 -15 -3 -21 3 -17 6 4 25 -15 43 -40 18 -26 26 -44 19 -39 -9
5 -10 2 -5 -14 3 -11 4 -21 2 -21 -11 0 -87 123 -86 139 0 12 2 12 6 2 5 -11
7 -11 15 0z m363 -51 c3 -5 1 -10 -4 -10 -6 0 -11 5 -11 10 0 6 2 10 4 10 3 0
8 -4 11 -10z m-742 -135 c-7 -21 -12 -19 -10 4 0 11 5 18 9 15 4 -3 5 -11 1
-19z m464 -52 c-3 -10 -5 -2 -5 17 0 19 2 27 5 18 2 -10 2 -26 0 -35z m-1180
12 c-4 -8 -11 -15 -17 -15 -14 0 -13 27 3 33 16 6 21 1 14 -18z m1443 -10 c13
-14 21 -25 18 -25 -2 0 -15 11 -28 25 -13 14 -21 25 -18 25 2 0 15 -11 28 -25z
m-826 -27 c-3 -5 4 -22 17 -36 21 -24 20 -23 -9 3 -18 16 -28 31 -22 33 7 3 7
9 -2 20 -12 15 -11 16 4 3 10 -7 15 -18 12 -23z m-644 1 c0 -5 -4 -9 -10 -9
-5 0 -10 7 -10 16 0 8 5 12 10 9 6 -3 10 -10 10 -16z m685 1 c10 -11 16 -20
13 -20 -3 0 -13 9 -23 20 -10 11 -16 20 -13 20 3 0 13 -9 23 -20z m542 -12
c-3 -8 -6 -5 -6 6 -1 11 2 17 5 13 3 -3 4 -12 1 -19z m-1247 -7 c16 -31 12
-36 -12 -15 l-21 19 18 -27 c18 -29 10 -37 -15 -15 -8 6 -6 2 4 -11 25 -29 13
-41 -16 -16 -23 19 -23 19 -5 -2 23 -28 24 -52 0 -33 -17 13 -17 12 0 -13 18
-29 11 -37 -13 -15 -8 6 -6 2 4 -11 23 -27 16 -40 -8 -13 -13 14 -14 24 -7 45
6 14 8 33 5 41 -6 16 32 85 46 85 5 0 14 -9 20 -19z m1450 -114 c0 -6 3 -8 6
-5 3 4 0 16 -6 28 -6 12 -9 24 -7 27 3 3 12 -8 21 -24 20 -37 21 -21 0 18 -19
38 -9 52 16 21 27 -33 34 -93 16 -136 -8 -20 -11 -36 -6 -36 5 0 7 -6 4 -13
-3 -9 -22 -13 -57 -12 -66 2 -87 12 -87 39 0 17 -2 18 -11 6 -8 -12 -9 -10 -7
10 3 24 12 28 47 19 26 -7 23 27 -5 60 -27 32 -49 36 -23 4 9 -11 10 -14 2 -9
-7 4 -18 16 -24 28 -8 15 -8 19 0 14 14 -9 14 -1 0 27 -5 12 8 2 30 -23 43
-47 57 -79 47 -106 -4 -11 -13 -14 -28 -11 -14 4 -18 3 -11 -4 22 -22 48 -5
51 31 2 19 8 38 14 41 6 4 -3 24 -21 49 -17 24 -31 48 -31 54 0 6 16 -11 35
-38 19 -27 35 -54 35 -59z m-675 73 c3 -5 1 -10 -4 -10 -6 0 -11 5 -11 10 0 6
2 10 4 10 3 0 8 -4 11 -10z m899 -66 c9 -8 16 -29 16 -46 0 -19 11 -43 30 -65
36 -41 40 -66 5 -33 -14 13 -25 20 -25 15 0 -4 -9 0 -20 10 -14 13 -20 31 -20
60 0 29 -5 45 -15 49 -8 3 -15 0 -16 -7 0 -7 -1 -32 -3 -55 -2 -37 2 -47 22
-60 91 -64 116 -105 87 -148 -8 -13 -22 -24 -30 -24 -17 0 -20 16 -5 25 24 15
9 59 -33 99 -46 43 -75 86 -58 86 6 0 7 15 4 35 -4 26 -1 41 12 55 22 24 29
25 49 4z m69 -56 l-11 -33 -1 32 c-1 17 -4 40 -7 50 -6 17 -6 17 11 1 15 -14
17 -22 8 -50z m-353 11 c0 -5 -4 -9 -10 -9 -5 0 -10 7 -10 16 0 8 5 12 10 9 6
-3 10 -10 10 -16z m319 -23 c-9 -8 -10 -7 -5 7 3 10 7 24 7 30 1 7 3 4 6 -7 3
-10 -1 -23 -8 -30z m70 -28 c0 -10 -3 -18 -8 -18 -15 0 -21 28 -14 63 l7 32 7
-30 c4 -16 7 -38 8 -47z m-2042 -40 c-2 -13 -4 -5 -4 17 -1 22 1 32 4 23 2
-10 2 -28 0 -40z m1830 10 c-3 -8 -6 -5 -6 6 -1 11 2 17 5 13 3 -3 4 -12 1
-19z m3 -78 c0 -20 -5 -41 -12 -48 -6 -6 -9 -15 -5 -18 4 -4 14 8 22 27 l16
34 -6 -35 -5 -35 15 30 c12 25 14 26 15 9 0 -11 -9 -29 -19 -38 -15 -14 -24
-15 -40 -6 -25 13 -25 18 -6 44 8 11 15 29 15 40 -1 16 -4 13 -15 -11 -21 -49
-25 -40 -7 17 17 55 32 50 32 -10z m-1025 41 c-3 -2 3 -10 13 -17 9 -7 13 -13
7 -13 -5 -1 -21 8 -35 19 -24 19 -24 19 -3 17 12 0 20 -3 18 -6z m1249 -150
c-7 -8 -21 44 -16 59 4 9 9 2 13 -20 4 -19 6 -37 3 -39z m-2119 19 l20 -25
-22 19 c-13 11 -23 24 -23 29 0 6 1 8 3 6 1 -2 11 -15 22 -29z m1722 -54 c0
-19 -5 -33 -9 -30 -11 7 -10 64 1 64 5 0 9 -15 8 -34z m-682 -55 c-7 -6 -65
50 -65 63 0 5 16 -5 35 -24 19 -18 32 -36 30 -39z m702 27 c-3 -7 -5 -2 -5 12
0 14 2 19 5 13 2 -7 2 -19 0 -25z m33 -21 c0 -18 -2 -19 -10 -7 -13 20 -13 43
0 35 6 -3 10 -16 10 -28z m50 -24 c0 -10 3 -29 6 -43 4 -18 3 -21 -4 -10 -15
25 -23 70 -12 70 5 0 10 -8 10 -17z m-736 -29 c26 -15 45 -29 42 -31 -5 -6
-96 44 -96 52 0 8 6 6 54 -21z m-484 -19 c13 -14 21 -25 18 -25 -2 0 -15 11
-28 25 -13 14 -21 25 -18 25 2 0 15 -11 28 -25z"/>
<path d="M3397 7933 c-8 -14 -19 -73 -13 -73 6 0 27 72 22 78 -2 2 -6 0 -9 -5z"/>
<path d="M3322 7850 c0 -14 2 -19 5 -12 2 6 2 18 0 25 -3 6 -5 1 -5 -13z"/>
<path d="M3321 7744 c0 -11 3 -14 6 -6 3 7 2 16 -1 19 -3 4 -6 -2 -5 -13z"/>
<path d="M2689 7200 c13 -11 27 -20 32 -20 18 0 8 10 -23 25 l-33 16 24 -21z"/>
<path d="M2746 7145 c9 -40 29 -78 50 -95 9 -8 5 3 -10 24 -14 21 -26 46 -26
55 0 9 -5 23 -10 31 -8 11 -9 7 -4 -15z"/>
<path d="M2561 7105 c-1 -11 -4 -31 -6 -45 l-6 -25 11 25 c6 13 9 33 7 45 -4
19 -4 19 -6 0z"/>
<path d="M2501 6922 c-1 -38 4 -49 33 -78 19 -19 40 -34 48 -34 7 0 -1 9 -18
19 -40 25 -47 36 -55 91 l-6 45 -2 -43z"/>
<path d="M3783 7208 c-15 -20 -25 -38 -20 -38 3 0 12 11 21 25 17 26 16 35 -1
13z"/>
<path d="M3241 6805 c0 -5 11 -23 25 -40 14 -16 21 -21 16 -10 -16 30 -41 61
-41 50z"/>
<path d="M3570 6410 l-2 -35 -9 30 -8 30 2 -31 c1 -17 -5 -40 -13 -49 -14 -17
-13 -17 7 -6 24 12 38 48 30 78 -3 10 -6 3 -7 -17z"/>
<path d="M3531 6412 c0 -13 -6 -33 -12 -45 -11 -20 -10 -21 6 -6 11 11 15 27
12 45 -3 23 -4 24 -6 6z"/>
<path d="M3070 8626 c0 -2 13 -6 29 -8 17 -2 28 -1 25 4 -5 8 -54 12 -54 4z"/>
<path d="M3227 8606 c4 -5 -6 -6 -21 -2 -39 10 -32 -2 13 -20 37 -14 51 -35
55 -75 0 -9 8 -24 16 -34 13 -17 13 -18 0 -10 -8 4 -2 -6 14 -23 17 -18 32
-32 34 -32 3 0 -2 8 -11 18 -10 10 -14 22 -11 25 4 4 1 14 -7 23 -20 24 -20
46 -1 40 46 -12 96 -16 82 -7 -8 6 -29 11 -45 11 -33 0 -79 26 -70 40 3 5 -7
16 -22 25 -19 11 -21 14 -7 10 13 -3 21 -1 21 7 0 7 -10 13 -23 13 -12 0 -20
-4 -17 -9z"/>
<path d="M2958 8597 c-16 -6 -28 -14 -28 -18 0 -5 16 -1 35 7 73 30 160 15
203 -36 11 -13 13 -13 9 0 -2 8 -18 25 -37 38 -26 17 -46 22 -94 21 -34 -1
-73 -6 -88 -12z"/>
<path d="M3281 8606 c2 -2 15 -9 29 -15 24 -11 24 -11 6 3 -16 13 -49 24 -35
12z"/>
<path d="M3290 8570 c21 -17 22 -19 5 -14 -14 4 -13 1 5 -10 14 -8 26 -11 28
-7 1 4 17 6 35 5 l32 -3 -32 8 c-18 5 -44 16 -57 25 -35 23 -46 20 -16 -4z"/>
<path d="M2896 8564 c-4 -9 -4 -19 -1 -22 2 -3 7 3 11 12 4 9 4 19 1 22 -2 3
-7 -3 -11 -12z"/>
<path d="M2961 8571 c-7 -5 -10 -14 -7 -20 4 -6 0 -14 -9 -17 -21 -8 -4 -29
36 -43 38 -13 37 -6 -3 15 l-32 16 25 14 c44 24 94 17 135 -18 21 -18 35 -26
32 -18 -2 8 -20 26 -39 38 -29 20 -43 23 -89 19 -53 -5 -54 -4 -25 9 23 10 25
13 10 13 -11 1 -26 -3 -34 -8z"/>
<path d="M3085 8565 c50 -18 55 -18 31 0 -11 8 -31 15 -45 15 -22 -1 -19 -3
14 -15z"/>
<path d="M3204 8541 c17 -18 17 -21 3 -15 -30 11 -18 -5 23 -31 44 -28 58 -32
41 -12 -6 8 -9 16 -6 19 3 3 -14 18 -37 33 -36 23 -40 24 -24 6z m51 -39 c-3
-3 -11 0 -18 7 -9 10 -8 11 6 5 10 -3 15 -9 12 -12z"/>
<path d="M3551 8556 c2 -2 15 -9 29 -15 24 -11 24 -11 6 3 -16 13 -49 24 -35
12z"/>
<path d="M3063 8524 c15 -8 27 -20 27 -26 0 -6 -6 -5 -17 3 -15 11 -14 10 1
-9 11 -12 15 -22 9 -22 -13 0 -49 40 -37 40 5 0 1 5 -9 11 -13 8 -22 8 -29 1
-7 -7 -1 -15 20 -26 16 -8 41 -29 56 -46 23 -28 26 -29 26 -11 0 12 -4 21 -9
21 -4 0 -6 11 -4 24 4 17 -2 28 -18 40 -13 9 -28 16 -34 16 -5 -1 2 -8 18 -16z"/>
<path d="M3415 8530 c3 -5 13 -10 21 -10 8 0 39 -22 68 -50 29 -27 56 -50 61
-50 10 0 -92 91 -119 107 -26 15 -39 16 -31 3z"/>
<path d="M2810 8514 c-24 -9 -29 -13 -14 -13 11 -1 29 6 40 14 22 17 20 17
-26 -1z"/>
<path d="M2845 8503 c-43 -21 -60 -23 -121 -19 -56 3 -80 0 -114 -15 -24 -11
-40 -22 -37 -26 4 -3 17 1 29 9 18 12 39 13 103 7 44 -5 92 -6 107 -3 22 3 36
-4 73 -39 25 -24 45 -40 45 -36 0 4 13 -6 29 -22 16 -16 35 -29 43 -29 7 1 1
8 -14 16 -16 8 -28 19 -28 25 0 6 7 6 19 -1 34 -18 47 -11 16 9 -16 10 -33 14
-36 9 -3 -5 -14 3 -24 18 -13 20 -14 28 -5 34 7 4 -5 14 -32 25 -24 10 -38 20
-31 22 12 4 153 -63 153 -73 0 -3 -8 -3 -17 1 -10 3 -3 -10 16 -29 19 -20 37
-36 39 -36 5 0 -9 22 -26 43 -9 10 -10 17 -4 17 11 0 57 -59 51 -64 -2 -2 -17
-8 -34 -15 -29 -11 -29 -11 -2 -6 15 3 27 1 27 -4 0 -16 -64 -23 -107 -12 -29
8 -55 28 -95 71 -30 33 -60 60 -67 60 -7 0 -10 -4 -7 -9 3 -5 -11 -3 -32 5
-20 7 -55 13 -77 12 -38 0 -37 -1 13 -9 74 -12 107 -32 148 -89 21 -29 47 -53
66 -59 17 -6 29 -13 26 -16 -15 -15 -70 21 -98 65 -34 54 -61 67 -151 77 -38
4 -59 2 -64 -6 -5 -9 2 -11 27 -6 45 9 122 -21 97 -37 -13 -9 -11 -15 20 -45
25 -24 29 -31 14 -23 -13 6 -23 14 -23 19 0 4 -11 14 -25 21 -19 10 -22 16
-13 22 8 5 1 6 -17 2 -35 -8 -45 -14 -23 -14 28 0 51 -37 45 -72 -7 -33 -6
-33 7 -8 l14 25 7 -28 c4 -15 2 -47 -3 -70 -6 -23 -14 -51 -16 -62 -3 -11 -3
5 -1 35 2 30 6 66 9 80 4 14 -1 7 -10 -15 -11 -27 -14 -57 -10 -95 3 -36 2
-50 -4 -40 -16 26 -12 -11 5 -40 8 -14 15 -50 16 -80 l2 -55 7 50 7 50 3 -50
c3 -43 4 -45 7 -16 5 38 -15 123 -27 116 -4 -2 2 34 13 80 12 46 23 83 25 80
2 -2 -1 -26 -7 -52 -9 -35 -9 -57 -2 -77 7 -17 7 -25 1 -21 -19 12 -10 -7 13
-25 18 -15 22 -27 21 -77 -1 -32 -7 -71 -14 -88 -11 -27 -13 -28 -20 -10 l-7
20 -5 -20 c-3 -18 -6 -17 -21 10 l-16 30 -2 -70 -2 -70 -9 75 c-6 41 -9 100
-9 131 2 49 -24 147 -35 136 -3 -2 3 -20 11 -40 31 -75 10 -157 -40 -157 -13
0 -31 10 -39 22 -9 12 -17 20 -20 17 -2 -2 -2 -46 1 -97 4 -57 9 -88 14 -80 5
7 9 23 9 36 0 12 5 22 11 22 16 0 4 -72 -21 -128 -11 -25 -19 -61 -19 -81 l2
-36 6 40 c4 22 20 61 35 88 25 42 28 55 24 117 -2 48 0 66 7 59 5 -5 10 -40
10 -77 0 -51 -6 -78 -23 -111 -13 -24 -21 -46 -18 -49 11 -11 57 110 65 170 8
60 9 61 10 17 0 -25 -5 -66 -13 -91 l-13 -45 26 2 c18 1 55 31 118 94 51 50
89 91 85 91 -4 0 -41 -30 -82 -67 l-75 -66 70 73 c39 41 61 67 49 57 -11 -9
-24 -17 -28 -17 -5 0 -5 30 -1 68 6 60 4 72 -20 116 -23 44 -26 56 -19 113 3
34 10 60 15 57 5 -3 9 -15 9 -27 0 -74 4 -129 8 -108 3 22 7 20 33 -25 16 -27
29 -45 29 -40 0 5 -11 28 -24 50 -13 23 -27 52 -31 66 -7 22 -6 23 9 11 15
-13 16 -12 6 14 -6 16 -8 35 -5 43 6 15 6 14 64 -93 13 -25 21 -32 21 -20 0
10 2 16 4 14 3 -2 1 -36 -3 -74 -5 -45 -9 -56 -10 -32 -1 37 -31 110 -50 122
-6 3 1 -15 15 -40 21 -36 25 -56 23 -107 -2 -76 3 -76 79 -10 113 99 292 214
447 289 82 40 100 60 48 55 -38 -4 -115 38 -178 98 -45 43 -84 70 -100 70 -3
0 -4 -4 -1 -9 4 -5 2 -11 -4 -13 -5 -1 6 -15 25 -31 21 -16 32 -21 29 -12 -4
9 -15 20 -26 26 -11 6 -17 13 -14 16 8 8 72 -35 89 -61 9 -12 38 -38 66 -55
29 -19 51 -40 50 -50 0 -10 -2 -12 -6 -3 -3 7 -24 22 -46 33 -41 19 -37 14 18
-27 11 -8 1 -5 -22 6 -51 24 -64 26 -37 4 18 -15 18 -15 -11 -9 -44 9 -72 30
-100 74 -27 44 -40 55 -55 46 -5 -3 11 -32 35 -64 45 -59 112 -100 138 -84 18
11 47 14 47 5 0 -21 -50 -31 -115 -21 -78 11 -94 18 -129 60 -31 36 -35 29 -6
-11 24 -34 86 -60 141 -60 l42 0 -29 -27 c-24 -23 -30 -25 -36 -13 -5 11 -7 8
-8 -10 -2 -22 -3 -20 -12 10 -6 19 -13 29 -15 22 -4 -10 -9 -8 -20 5 -13 17
-13 16 -4 -4 6 -12 11 -34 11 -50 -1 -22 -5 -16 -20 27 -10 30 -30 64 -43 75
-27 22 -56 82 -49 103 2 7 16 -4 33 -28 26 -36 124 -98 136 -86 3 2 -9 12 -26
20 -16 9 -43 32 -58 51 -15 19 -33 35 -39 35 -7 0 -24 16 -38 35 -15 19 -37
40 -49 46 -22 12 -22 12 -3 -10 11 -11 16 -21 12 -21 -12 0 -105 50 -111 60
-16 26 -41 27 -90 3z m83 -12 c43 -30 112 -62 121 -56 13 8 31 -19 22 -33 -6
-10 -11 -9 -21 3 -8 9 -35 28 -62 41 -72 37 -115 64 -100 64 8 0 26 -8 40 -19z
m-15 -69 c17 -36 17 -36 0 -15 -10 12 -29 30 -43 41 l-25 20 25 -5 c16 -3 31
-17 43 -41z m32 -120 c14 -8 15 -11 5 -12 -24 0 -78 37 -91 62 -6 13 -21 34
-33 48 -11 14 6 0 39 -31 33 -31 69 -61 80 -67z m-49 -38 c26 -5 46 -2 68 10
19 10 48 15 75 13 38 -2 46 -7 62 -37 10 -19 18 -30 19 -25 0 6 -9 25 -20 43
-23 37 -24 42 -10 42 19 0 50 -83 48 -130 l-1 -45 -7 40 -7 40 -3 -50 -3 -50
-7 40 -7 40 -2 -42 c-2 -64 -21 -64 -21 -1 0 33 -6 62 -15 74 -14 18 -14 17
-5 -9 5 -16 10 -45 9 -65 l0 -37 -14 44 c-15 47 -50 91 -74 91 -10 0 -6 -9 13
-29 20 -21 30 -45 36 -83 7 -52 8 -52 10 -13 1 22 4 32 7 22 6 -23 -8 -97 -14
-79 -4 10 -9 8 -19 -5 -12 -17 -13 -16 -14 10 0 15 -4 27 -9 27 -5 0 -11 14
-15 31 -6 34 -45 94 -54 85 -3 -4 5 -17 18 -31 18 -19 25 -40 28 -84 2 -32 -1
-67 -7 -77 -9 -16 -10 -13 -11 19 0 22 -4 36 -10 32 -6 -4 -8 5 -5 22 4 20 -3
44 -25 81 -17 30 -34 51 -37 48 -3 -3 6 -23 21 -44 14 -21 26 -42 26 -48 0 -5
-14 11 -30 36 -34 51 -37 70 -12 71 9 0 1 7 -18 15 -29 12 -59 46 -79 88 -2 5
15 -10 37 -32 27 -27 54 -43 78 -48z m474 -4 c-30 -16 -59 -29 -65 -29 -5 0
15 13 45 29 30 16 60 29 65 29 6 0 -15 -13 -45 -29z m-163 -67 c-3 -10 -5 -4
-5 12 0 17 2 24 5 18 2 -7 2 -21 0 -30z m-220 -145 c-3 -8 -6 -5 -6 6 -1 11 2
17 5 13 3 -3 4 -12 1 -19z"/>
<path d="M3072 8255 c4 -6 12 -22 17 -36 6 -15 10 -18 10 -8 1 9 -7 25 -16 36
-10 10 -15 14 -11 8z"/>
<path d="M2953 8213 c11 -12 25 -39 33 -60 7 -21 13 -30 14 -20 0 24 -24 70
-47 88 -17 13 -17 12 0 -8z"/>
<path d="M3506 8521 c-3 -4 4 -17 17 -27 l22 -19 -19 23 c-30 35 -3 25 34 -13
19 -19 37 -35 42 -35 4 0 -12 18 -36 40 -46 42 -52 45 -60 31z"/>
<path d="M3580 8505 c13 -14 26 -25 28 -25 3 0 -5 11 -18 25 -13 14 -26 25
-28 25 -3 0 5 -11 18 -25z"/>
<path d="M3159 8484 c-9 -18 -13 -31 -9 -29 8 5 42 -27 90 -85 16 -19 30 -29
30 -22 0 6 -4 12 -10 12 -5 0 -21 20 -35 45 -15 24 -35 47 -46 50 -15 5 -17
10 -8 26 6 11 9 24 7 28 -2 5 -10 -7 -19 -25z"/>
<path d="M2723 8493 c9 -2 25 -2 35 0 9 3 1 5 -18 5 -19 0 -27 -2 -17 -5z"/>
<path d="M3313 8493 c9 -2 25 -2 35 0 9 3 1 5 -18 5 -19 0 -27 -2 -17 -5z"/>
<path d="M2875 8391 c33 -32 71 -62 85 -65 18 -5 15 -1 -11 13 -19 11 -52 40
-73 65 -21 25 -43 46 -49 46 -7 0 15 -27 48 -59z"/>
<path d="M2555 8411 c-64 -37 -112 -86 -94 -97 7 -4 15 -2 17 5 6 19 53 71 64
71 6 0 -4 -13 -21 -29 -17 -16 -31 -35 -31 -43 1 -7 10 -2 23 13 12 15 38 37
57 49 33 20 33 21 8 16 -41 -9 -34 2 15 24 23 10 35 19 27 19 -8 1 -37 -12
-65 -28z"/>
<path d="M2665 8380 c3 -5 14 -10 23 -10 15 0 15 2 2 10 -20 13 -33 13 -25 0z"/>
<path d="M2720 8380 c8 -5 20 -10 25 -10 6 0 3 5 -5 10 -8 5 -19 10 -25 10 -5
0 -3 -5 5 -10z"/>
<path d="M3086 8377 c3 -10 9 -15 12 -12 3 3 0 11 -7 18 -10 9 -11 8 -5 -6z"/>
<path d="M2568 8353 c-58 -62 -67 -72 -77 -92 -13 -23 -14 -44 -3 -37 5 3 7
-19 4 -48 -2 -29 0 -56 5 -59 5 -3 8 11 6 31 -2 28 -1 32 5 17 7 -16 10 -11
16 27 4 26 11 50 17 53 11 8 11 7 0 -33 -6 -20 -6 -30 0 -27 5 4 9 13 9 22 0
21 66 109 87 118 14 5 15 8 4 14 -7 5 -12 11 -12 15 5 36 -27 35 -61 -1z"/>
<path d="M2702 8294 c-1 -17 -9 -51 -17 -74 -8 -23 -15 -50 -14 -59 0 -9 9 11
20 44 11 33 18 74 16 90 l-4 30 -1 -31z"/>
<path d="M2681 8290 c-1 -14 -8 -36 -16 -50 -8 -14 -14 -34 -14 -45 0 -11 9 2
20 29 11 27 18 59 16 70 -4 18 -5 17 -6 -4z"/>
<path d="M3896 8285 c4 -16 11 -34 16 -40 7 -7 8 -1 3 15 -12 40 -26 59 -19
25z"/>
<path d="M2431 8274 c-21 -26 -28 -50 -13 -41 4 3 8 -46 10 -108 2 -85 -1
-122 -12 -150 -23 -53 -20 -63 10 -34 34 34 40 87 20 182 -8 42 -13 84 -11 92
16 51 16 50 25 35 7 -11 10 -11 10 -2 0 7 -7 15 -15 18 -12 5 -13 10 -4 20 6
8 9 14 6 14 -3 0 -15 -12 -26 -26z"/>
<path d="M2592 8255 c-14 -31 -15 -35 -4 -35 4 0 13 14 19 30 14 36 1 40 -15
5z"/>
<path d="M2343 8243 c-18 -28 -22 -94 -13 -213 2 -30 1 -68 -4 -85 -7 -27 -6
-28 6 -10 9 14 13 60 13 151 0 111 3 135 18 151 19 22 22 33 7 33 -5 0 -18
-12 -27 -27z"/>
<path d="M2383 8243 c-15 -22 -18 -47 -17 -130 1 -65 6 -109 14 -118 7 -9 8
-15 2 -15 -5 0 -12 -8 -15 -17 -4 -10 -18 -38 -32 -63 -31 -56 -32 -104 -4
-207 20 -72 21 -85 10 -165 -12 -81 -11 -89 10 -137 24 -56 33 -61 49 -31 9
16 6 34 -14 85 -15 35 -26 81 -25 102 1 38 1 38 9 8 5 -16 14 -51 21 -77 6
-26 18 -53 27 -60 12 -11 12 -7 -2 21 -21 40 -23 80 -7 141 12 45 8 113 -10
154 -7 16 -8 13 -3 -14 3 -19 8 -44 11 -55 12 -47 -16 4 -36 64 -31 94 -25
189 15 229 17 17 26 68 21 117 -3 32 -4 29 -5 -17 -1 -35 -6 -58 -13 -58 -16
0 -7 217 10 248 17 31 5 28 -16 -5z"/>
<path d="M2622 8258 c-15 -15 -16 -54 -2 -63 6 -3 15 6 20 20 13 34 13 38 -2
29 -8 -5 -9 -2 -5 9 8 20 5 21 -11 5z"/>
<path d="M3773 8235 c0 -22 2 -30 4 -17 2 12 2 30 0 40 -3 9 -5 -1 -4 -23z"/>
<path d="M3942 8248 c3 -7 13 -37 23 -66 9 -29 19 -52 21 -49 5 5 -36 127 -43
127 -3 0 -3 -6 -1 -12z"/>
<path d="M3573 8175 c0 -44 2 -61 4 -37 2 23 2 59 0 80 -2 20 -4 1 -4 -43z"/>
<path d="M2287 8215 c-19 -20 -25 -34 -22 -58 3 -18 9 -69 15 -114 9 -69 8
-91 -6 -138 -12 -42 -13 -63 -6 -79 10 -19 11 -19 11 10 1 17 8 49 17 70 13
32 15 60 9 166 -6 97 -4 132 5 143 22 27 4 26 -23 0z"/>
<path d="M3541 8224 c0 -11 3 -14 6 -6 3 7 2 16 -1 19 -3 4 -6 -2 -5 -13z"/>
<path d="M3643 8180 c0 -36 2 -50 4 -32 2 17 2 47 0 65 -2 17 -4 3 -4 -33z"/>
<path d="M2402 8205 c0 -16 2 -22 5 -12 2 9 2 23 0 30 -3 6 -5 -1 -5 -18z"/>
<path d="M3742 8200 c0 -14 2 -19 5 -12 2 6 2 18 0 25 -3 6 -5 1 -5 -13z"/>
<path d="M2457 8155 c15 -112 10 -190 -12 -216 l-20 -24 22 19 c47 39 53 120
18 231 l-15 50 7 -60z"/>
<path d="M2560 8189 c0 -16 17 -45 46 -80 58 -67 54 -64 54 -56 0 4 -16 25
-36 47 -20 22 -42 57 -50 78 -11 32 -13 33 -14 11z"/>
<path d="M2580 8201 c0 -6 4 -13 10 -16 6 -3 7 1 4 9 -7 18 -14 21 -14 7z"/>
<path d="M2703 8170 c0 -25 2 -35 4 -22 2 12 2 32 0 45 -2 12 -4 2 -4 -23z"/>
<path d="M3890 8207 c0 -2 15 -16 33 -33 l32 -29 -29 33 c-28 30 -36 37 -36
29z"/>
<path d="M3552 8153 c-1 -23 -5 -50 -8 -60 -5 -17 -5 -17 6 0 6 9 9 36 7 60
l-4 42 -1 -42z"/>
<path d="M2541 8150 c0 -14 8 -45 19 -69 11 -24 20 -51 20 -61 0 -28 34 -64
53 -57 31 12 20 55 -27 105 -24 26 -48 61 -54 77 -10 29 -10 29 -11 5z"/>
<path d="M2610 8156 c0 -2 8 -10 18 -17 15 -13 16 -12 3 4 -13 16 -21 21 -21
13z"/>
<path d="M2751 8104 c0 -11 3 -14 6 -6 3 7 2 16 -1 19 -3 4 -6 -2 -5 -13z"/>
<path d="M2513 8099 c-6 -6 -8 -37 -5 -74 4 -52 1 -70 -14 -92 -10 -15 -19
-30 -19 -33 0 -3 -10 -16 -22 -29 -31 -33 -38 -83 -22 -150 l13 -56 6 55 c7
69 21 96 31 60 l7 -25 1 28 c1 15 6 27 12 27 6 0 8 -17 4 -47 -4 -40 -4 -44 6
-23 6 14 9 48 7 77 -2 28 0 49 5 46 13 -8 7 -123 -8 -153 -9 -17 -13 -30 -11
-30 3 0 13 14 22 32 13 25 15 49 11 112 -6 92 9 83 19 -11 5 -48 2 -69 -20
-122 -25 -62 -32 -127 -18 -164 6 -14 18 -3 62 55 64 85 77 110 27 53 l-35
-40 -12 30 c-6 17 -9 46 -6 65 16 96 16 129 3 186 -8 33 -11 67 -7 75 4 8 10
30 14 49 5 30 3 29 -9 -9 -15 -44 -50 -91 -68 -91 -6 0 -1 10 10 23 34 36 43
63 43 121 0 56 -9 73 -27 55z"/>
<path d="M3070 8014 c-30 -26 -31 -30 -25 -73 3 -25 10 -60 16 -76 10 -32 114
-143 124 -133 4 3 -10 27 -29 52 -53 70 -55 114 -9 243 4 12 3 15 -4 8 -14
-14 -43 -112 -43 -146 0 -15 -4 -30 -9 -33 -10 -7 -21 29 -20 64 1 20 3 17 9
-10 l7 -35 2 40 c0 22 6 57 12 78 6 22 8 41 6 43 -2 3 -19 -7 -37 -22z m17
-26 c-3 -7 -5 -2 -5 12 0 14 2 19 5 13 2 -7 2 -19 0 -25z m32 -168 c11 -24 11
-24 -3 -6 -9 11 -16 24 -16 30 0 12 5 7 19 -24z"/>
<path d="M3623 8014 l-28 -26 33 22 c29 20 39 30 28 30 -3 0 -18 -12 -33 -26z"/>
<path d="M2881 8014 c0 -11 3 -14 6 -6 3 7 2 16 -1 19 -3 4 -6 -2 -5 -13z"/>
<path d="M3655 8000 c-3 -6 1 -7 9 -4 18 7 21 14 7 14 -6 0 -13 -4 -16 -10z"/>
<path d="M2851 7973 c0 -12 -4 -30 -7 -40 -5 -14 -4 -15 5 -7 7 6 11 24 8 40
-3 21 -4 23 -6 7z"/>
<path d="M2999 7938 c0 -27 -2 -30 -9 -13 -8 19 -9 19 -9 -3 -1 -12 5 -37 12
-55 15 -35 93 -111 106 -102 5 2 23 -9 40 -27 17 -17 31 -27 31 -21 0 6 -25
34 -55 61 -60 53 -95 110 -95 154 0 40 -20 46 -21 6z m8 -60 c-3 -8 -6 -5 -6
6 -1 11 2 17 5 13 3 -3 4 -12 1 -19z"/>
<path d="M3640 7949 c0 -5 5 -7 10 -4 6 3 10 8 10 11 0 2 -4 4 -10 4 -5 0 -10
-5 -10 -11z"/>
<path d="M3568 7928 c-22 -34 -39 -68 -35 -68 8 0 59 82 54 86 -2 3 -11 -6
-19 -18z"/>
<path d="M2941 7911 c-12 -21 1 -77 24 -106 16 -20 16 -20 10 2 -6 20 -4 20
24 -5 16 -15 25 -29 19 -31 -5 -1 9 -16 30 -32 22 -16 45 -43 52 -59 7 -17 15
-29 17 -26 2 2 -4 19 -13 38 -10 18 -18 36 -19 40 0 4 -23 29 -52 55 -43 41
-52 55 -58 96 -8 50 -18 59 -34 28z"/>
<path d="M3630 7910 c-9 -6 -10 -10 -3 -10 6 0 15 5 18 10 8 12 4 12 -15 0z"/>
<path d="M3797 7856 c-53 -20 -59 -29 -14 -21 25 5 37 4 37 -4 0 -6 -4 -11
-10 -11 -5 0 -10 -8 -10 -17 0 -16 -74 -61 -91 -56 -4 1 -5 -7 -2 -17 6 -24
12 -24 49 -5 16 8 44 15 63 15 26 0 32 -3 27 -16 -5 -14 -1 -15 26 -11 52 8
71 -8 63 -51 -7 -39 4 -36 29 6 6 11 20 32 30 47 18 24 18 32 7 74 -7 25 -18
52 -25 60 -20 19 -133 24 -179 7z"/>
<path d="M2376 7845 c-3 -9 -6 -24 -5 -33 0 -9 5 -4 10 12 9 32 6 48 -5 21z"/>
<path d="M3675 7830 c-3 -6 1 -7 9 -4 18 7 21 14 7 14 -6 0 -13 -4 -16 -10z"/>
<path d="M3251 7812 c-1 -21 24 -82 33 -82 4 0 -10 47 -25 85 -7 19 -8 19 -8
-3z"/>
<path d="M2281 7775 c0 -11 11 -51 24 -90 32 -91 32 -62 0 35 -13 41 -24 66
-24 55z"/>
<path d="M2381 7774 c0 -11 3 -14 6 -6 3 7 2 16 -1 19 -3 4 -6 -2 -5 -13z"/>
<path d="M2472 7720 c0 -19 2 -27 5 -17 2 9 2 25 0 35 -3 9 -5 1 -5 -18z"/>
<path d="M3230 7721 c0 -5 4 -12 9 -15 5 -3 12 -23 16 -43 4 -21 10 -32 12
-26 6 16 -15 81 -28 88 -5 4 -9 2 -9 -4z"/>
<path d="M3130 7716 c0 -4 5 -26 11 -50 8 -33 7 -55 -5 -103 -18 -69 -19 -83
-8 -83 14 0 32 153 23 193 -8 35 -21 61 -21 43z"/>
<path d="M3673 7709 c-13 -5 -23 -13 -23 -18 0 -6 -7 -8 -15 -4 -9 3 -15 1
-13 -4 2 -6 -8 -20 -22 -31 l-25 -20 28 -11 c51 -20 88 -13 159 29 37 23 68
45 68 50 0 16 -9 12 -49 -21 -21 -17 -45 -31 -52 -32 -8 -2 -19 -6 -26 -10 -7
-4 -23 -5 -37 -1 -22 5 -23 8 -13 25 6 10 17 19 23 19 11 0 28 29 22 35 -2 2
-13 -1 -25 -6z"/>
<path d="M3270 7705 c0 -5 5 -17 10 -25 5 -8 10 -10 10 -5 0 6 -5 17 -10 25
-5 8 -10 11 -10 5z"/>
<path d="M3207 7635 c3 -33 7 -62 9 -64 8 -9 2 85 -6 104 -6 13 -7 -2 -3 -40z"/>
<path d="M3812 7650 c-33 -22 -67 -40 -76 -40 -17 0 -39 -41 -26 -50 4 -3 11
-13 16 -23 9 -16 12 -16 29 -1 12 9 16 17 9 20 -6 3 -20 12 -30 20 -15 13 -16
15 -2 10 9 -2 19 2 22 10 3 9 10 12 16 9 5 -3 10 -2 10 3 0 16 54 46 79 44 14
-1 28 -8 33 -15 4 -6 8 -10 9 -7 8 51 7 60 -11 60 -10 0 -45 -18 -78 -40z"/>
<path d="M2791 7644 c-39 -44 -46 -70 -46 -174 0 -63 5 -95 19 -123 24 -49 33
-40 12 13 -9 22 -16 59 -16 81 0 40 27 139 40 149 8 5 24 48 25 65 0 20 31 15
60 -10 22 -19 24 -23 8 -15 -23 11 -27 5 -26 -37 1 -7 -4 -13 -10 -13 -5 0 2
-11 17 -25 38 -35 35 -62 -8 -71 -19 -3 -41 -13 -49 -22 -21 -24 -27 -84 -12
-119 20 -47 34 -49 28 -5 -4 31 0 47 23 80 16 23 37 44 46 47 67 23 84 75 49
152 -22 47 -41 60 -93 61 -30 1 -42 -5 -67 -34z m137 -14 c12 -18 22 -38 22
-44 -1 -6 -10 6 -20 26 -11 20 -28 42 -37 48 -12 8 -13 10 -3 7 8 -2 25 -18
38 -37z"/>
<path d="M2950 7653 c0 -5 4 -13 9 -18 6 -6 14 -32 19 -60 5 -27 10 -39 11
-25 1 32 -17 98 -29 105 -6 4 -10 2 -10 -2z"/>
<path d="M3168 7595 c-4 -38 -9 -83 -12 -100 -4 -16 1 -8 9 18 9 27 15 72 13
100 l-3 52 -7 -70z"/>
<path d="M3236 7620 c8 -56 14 -64 14 -19 0 19 -5 41 -10 49 -7 10 -8 1 -4
-30z"/>
<path d="M3957 7632 c-19 -21 -23 -37 -5 -26 8 5 9 2 5 -10 -4 -10 -3 -15 3
-11 6 3 10 1 10 -5 0 -6 5 -8 13 -4 9 6 9 4 1 -7 -6 -8 -11 -22 -11 -32 0 -15
2 -16 17 -2 9 8 20 12 23 8 4 -3 8 -1 8 5 4 39 2 47 -13 46 -9 -1 -14 4 -12
10 2 6 -1 20 -9 29 -12 18 -13 18 -30 -1z m16 -9 c-4 -11 -3 -14 5 -9 8 5 10
2 5 -10 -5 -15 -7 -15 -15 0 -5 9 -6 21 -3 26 10 16 15 12 8 -7z"/>
<path d="M2437 7591 c-9 -30 -17 -65 -17 -78 0 -29 29 -103 41 -103 13 0 22
47 12 62 -4 7 -10 49 -13 93 l-5 80 -18 -54z"/>
<path d="M2293 7585 c0 -27 2 -38 4 -22 2 15 2 37 0 50 -2 12 -4 0 -4 -28z"/>
<path d="M3053 7565 c0 -33 2 -45 4 -27 2 18 2 45 0 60 -2 15 -4 0 -4 -33z"/>
<path d="M2328 7575 c-3 -22 -9 -49 -12 -60 -4 -11 1 -5 9 14 9 18 15 45 13
60 -3 21 -5 18 -10 -14z"/>
<path d="M2482 7580 c0 -19 2 -27 5 -17 2 9 2 25 0 35 -3 9 -5 1 -5 -18z"/>
<path d="M3271 7594 c0 -11 3 -14 6 -6 3 7 2 16 -1 19 -3 4 -6 -2 -5 -13z"/>
<path d="M3081 7549 c-6 -18 -11 -37 -10 -43 0 -6 7 7 15 28 8 22 12 41 10 43
-2 2 -9 -10 -15 -28z"/>
<path d="M3196 7536 c-3 -13 -9 -32 -12 -43 -5 -12 -4 -15 3 -8 11 10 28 75
20 75 -3 0 -8 -11 -11 -24z"/>
<path d="M4030 7545 c-7 -8 -15 -13 -19 -11 -4 3 -7 -4 -7 -14 0 -10 5 -16 10
-13 5 4 7 -1 3 -9 -3 -9 -1 -15 6 -14 23 3 36 17 34 36 -1 18 -2 18 -21 2 -20
-17 -20 -17 -3 11 19 29 17 36 -3 12z"/>
<path d="M3281 7534 c0 -11 3 -14 6 -6 3 7 2 16 -1 19 -3 4 -6 -2 -5 -13z"/>
<path d="M2492 7510 c0 -19 2 -27 5 -17 2 9 2 25 0 35 -3 9 -5 1 -5 -18z"/>
<path d="M3775 7529 c-4 -6 -4 -13 -1 -16 3 -4 6 -1 6 6 0 7 5 9 12 5 7 -4 8
-3 4 4 -9 15 -13 15 -21 1z"/>
<path d="M4060 7488 c-12 -22 -12 -22 6 -6 10 10 15 20 12 24 -4 3 -12 -5 -18
-18z"/>
<path d="M3087 7470 c-12 -45 -8 -74 23 -138 17 -35 30 -70 30 -78 0 -9 4 -12
10 -9 6 4 5 19 -5 41 -19 45 -10 43 14 -3 11 -21 20 -32 21 -24 0 8 -13 35
-29 61 -29 47 -48 100 -54 150 l-2 25 -8 -25z"/>
<path d="M3241 7466 c-17 -30 -10 -52 45 -147 25 -43 49 -101 55 -132 14 -66
34 -66 26 1 -3 27 -26 85 -57 144 -28 55 -52 113 -52 129 -1 16 -2 29 -3 29
-1 0 -7 -11 -14 -24z"/>
<path d="M3204 7425 c1 -27 6 -59 11 -69 6 -14 5 -17 -3 -12 -7 4 -12 3 -12
-3 0 -5 5 -13 11 -17 6 -3 22 -30 35 -58 13 -28 24 -45 24 -38 0 7 5 10 10 7
21 -13 9 23 -27 81 -22 35 -39 79 -44 109 l-7 50 2 -50z m45 -119 c12 -18 21
-40 21 -47 0 -8 -11 6 -25 30 -14 23 -25 45 -25 47 0 11 10 1 29 -30z"/>
<path d="M4073 7448 c-19 -23 -45 -80 -34 -74 6 4 11 1 11 -6 1 -7 7 -2 16 12
15 25 15 25 8 1 -4 -16 -3 -21 5 -17 7 5 9 1 5 -8 -4 -10 -1 -16 7 -16 8 0 15
11 15 25 1 14 -2 23 -6 20 -14 -8 -21 27 -9 42 8 9 9 17 2 24 -7 7 -13 6 -20
-3z m7 -18 c-6 -11 -13 -20 -16 -20 -2 0 0 9 6 20 6 11 13 20 16 20 2 0 0 -9
-6 -20z"/>
<path d="M3120 7449 c-1 -16 26 -77 56 -127 29 -47 34 -65 34 -116 0 -75 -13
-122 -42 -153 -12 -12 -16 -23 -10 -23 6 0 18 10 26 22 9 12 16 18 16 13 0 -5
-10 -19 -22 -32 -12 -13 -16 -23 -10 -23 13 0 62 69 62 88 0 7 3 11 8 9 14 -9
3 147 -11 158 -17 13 -27 47 -33 114 -2 30 -7 57 -11 60 -3 3 -3 -16 -1 -44 5
-48 5 -49 -8 -20 -7 17 -13 36 -14 44 0 8 -3 11 -7 8 -3 -4 -12 1 -19 11 -7 9
-14 14 -14 11z m100 -354 c-14 -38 -22 -27 -10 16 6 18 11 61 12 94 l2 60 3
-71 c2 -39 -1 -83 -7 -99z"/>
<path d="M3696 7404 c-5 -14 -4 -15 9 -4 17 14 19 20 6 20 -5 0 -12 -7 -15
-16z"/>
<path d="M3665 7399 c-4 -6 -5 -12 -2 -15 2 -3 7 2 10 11 7 17 1 20 -8 4z"/>
<path d="M3752 7355 c-7 -14 -17 -23 -22 -20 -6 4 -7 12 -3 18 4 7 1 7 -9 -1
-9 -8 -15 -19 -12 -27 3 -7 0 -16 -6 -20 -8 -5 -8 -11 1 -21 10 -13 14 -12 30
2 10 9 16 22 12 28 -3 6 0 5 8 -2 12 -12 8 -19 -26 -48 -22 -20 -31 -32 -20
-28 18 7 19 6 5 -12 -8 -10 0 -6 17 10 18 16 31 34 30 40 -1 6 3 10 8 9 6 -1
11 7 11 17 0 10 -4 16 -8 14 -13 -8 -9 5 8 32 9 13 14 27 10 31 -3 3 -6 0 -6
-8 0 -11 -2 -11 -8 -1 -6 9 -12 5 -20 -13z m9 -18 c-10 -9 -11 -8 -5 6 3 10 9
15 12 12 3 -3 0 -11 -7 -18z m-32 -44 c-6 -7 -15 -10 -21 -7 -5 3 -4 11 2 19
7 8 9 20 5 27 -4 7 1 4 9 -6 12 -14 13 -23 5 -33z m21 -27 c0 -2 -8 -10 -17
-17 -16 -13 -17 -12 -4 4 13 16 21 21 21 13z"/>
<path d="M4000 7341 c0 -6 4 -13 10 -16 6 -3 7 1 4 9 -7 18 -14 21 -14 7z"/>
<path d="M3382 7309 c7 -12 21 -35 31 -53 15 -26 16 -27 11 -6 -7 25 -41 80
-50 80 -3 0 1 -10 8 -21z"/>
<path d="M3795 7321 c-3 -5 -2 -12 3 -15 5 -3 9 1 9 9 0 17 -3 19 -12 6z"/>
<path d="M3510 7221 c0 -6 4 -13 10 -16 6 -3 7 1 4 9 -7 18 -14 21 -14 7z"/>
<path d="M3433 7185 c0 -22 2 -30 4 -17 2 12 2 30 0 40 -3 9 -5 -1 -4 -23z"/>
<path d="M3316 7170 c8 -56 14 -64 14 -19 0 19 -5 41 -10 49 -7 10 -8 1 -4
-30z"/>
<path d="M3451 7163 c0 -18 -13 -58 -27 -90 -14 -32 -30 -84 -35 -116 -9 -52
-7 -61 11 -87 17 -24 26 -28 54 -25 34 5 58 -13 84 -60 6 -11 12 -14 12 -7 0
7 -25 39 -55 72 -86 94 -94 136 -44 238 16 35 28 73 26 85 -3 18 -5 16 -7 -8
l-2 -30 -8 30 -8 30 -1 -32z"/>
<path d="M3895 7145 c-16 -13 -27 -26 -25 -29 3 -2 21 9 40 25 19 15 31 28 25
28 -5 0 -23 -11 -40 -24z"/>
<path d="M3381 7144 c0 -12 -13 -47 -27 -77 -41 -91 -32 -180 24 -230 30 -27
34 1 5 42 -12 19 -23 29 -23 22 0 -7 -4 -9 -10 -6 -19 12 -11 103 16 169 14
36 24 73 21 83 -4 15 -5 14 -6 -3z"/>
<path d="M3931 7118 c-29 -31 -51 -92 -37 -105 3 -4 6 4 6 16 0 28 16 59 48
94 14 15 23 27 19 27 -3 0 -20 -15 -36 -32z"/>
<path d="M2931 7114 c0 -11 3 -14 6 -6 3 7 2 16 -1 19 -3 4 -6 -2 -5 -13z"/>
<path d="M3330 7073 c-23 -58 -23 -61 0 -20 12 21 20 43 18 48 -2 6 -10 -7
-18 -28z"/>
<path d="M3605 7085 c3 -16 14 -41 24 -55 17 -24 32 -34 98 -63 46 -21 33 2
-30 53 l-52 42 44 -41 c24 -23 39 -41 33 -41 -19 0 -82 61 -103 99 -20 36 -20
36 -14 6z"/>
<path d="M3001 7090 c0 -8 4 -22 9 -30 12 -18 12 -2 0 25 -6 13 -9 15 -9 5z"/>
<path d="M3090 7093 c0 -4 5 -15 10 -23 8 -13 10 -13 10 2 0 9 -4 20 -10 23
-5 3 -10 3 -10 -2z"/>
<path d="M3298 7060 c-9 -22 -15 -40 -13 -40 8 0 36 61 33 70 -2 5 -11 -9 -20
-30z"/>
<path d="M3388 7075 c-20 -27 -42 -116 -35 -142 3 -10 6 -2 7 17 l2 35 8 -30
8 -30 1 31 c0 17 8 54 17 83 8 29 14 54 12 56 -2 2 -11 -7 -20 -20z"/>
<path d="M3940 7084 c-8 -8 -16 -42 -18 -73 -3 -45 1 -67 18 -100 12 -24 24
-40 27 -37 3 2 -4 20 -16 39 -25 41 -28 105 -5 148 17 35 14 48 -6 23z"/>
<path d="M3020 7083 c0 -4 5 -15 10 -23 8 -13 10 -13 10 2 0 9 -4 20 -10 23
-5 3 -10 3 -10 -2z"/>
<path d="M3050 7078 c0 -9 5 -20 10 -23 13 -8 13 5 0 25 -8 13 -10 13 -10 -2z"/>
<path d="M3832 7070 c-7 -12 -12 -54 -12 -103 0 -96 9 -117 88 -202 50 -55 69
-63 36 -16 -14 19 -14 27 -4 47 10 18 11 29 2 46 -11 20 -11 19 -6 -12 l6 -35
-45 46 c-45 45 -46 48 -53 126 -4 53 -3 87 5 101 15 27 0 29 -17 2z"/>
<path d="M3866 7064 c-10 -26 -5 -77 10 -114 12 -30 13 -31 7 -5 -4 17 -8 54
-8 83 0 28 -1 52 -1 52 -1 0 -5 -7 -8 -16z"/>
<path d="M3176 6988 c-9 -12 -14 -23 -12 -25 7 -7 35 9 40 22 9 24 -12 26 -28
3z"/>
<path d="M4022 6940 c0 -14 2 -19 5 -12 2 6 2 18 0 25 -3 6 -5 1 -5 -13z"/>
<path d="M3765 6901 c4 -21 1 -38 -9 -53 -22 -32 -20 -51 14 -115 17 -31 30
-62 30 -69 0 -8 5 -14 10 -14 13 0 3 47 -16 77 -20 33 -16 42 6 14 11 -13 20
-29 20 -37 0 -8 4 -14 10 -14 11 0 3 26 -20 60 -34 51 -32 54 12 12 25 -24 51
-58 56 -75 l11 -32 -5 33 c-5 29 -3 33 13 30 22 -4 29 -51 14 -104 -6 -21 -7
-33 -2 -28 4 5 14 30 20 55 16 58 9 73 -65 149 -29 30 -59 73 -67 94 -17 50
-42 63 -32 17z m115 -173 c0 -14 -19 1 -31 25 -12 22 -12 22 10 3 11 -11 21
-23 21 -28z"/>
<path d="M4000 6821 c0 -5 5 -13 10 -16 6 -3 10 -2 10 4 0 5 -4 13 -10 16 -5
3 -10 2 -10 -4z"/>
<path d="M3460 6806 c0 -10 -7 -12 -22 -8 -23 5 -23 5 -4 -16 10 -12 23 -20
28 -19 6 1 13 -5 15 -13 4 -13 3 -13 -6 0 -15 21 -14 9 3 -30 l13 -32 7 26 c4
15 4 32 1 39 -4 7 1 3 9 -7 16 -20 16 -20 16 1 0 22 -35 73 -51 73 -5 0 -9 -6
-9 -14z"/>
<path d="M4051 6793 c-1 -12 4 -25 9 -28 12 -7 12 2 0 30 -8 19 -9 19 -9 -2z"/>
<path d="M3971 6785 c1 -19 18 -51 18 -35 0 8 -4 22 -9 30 -5 8 -9 11 -9 5z"/>
<path d="M2887 6713 c35 -35 69 -63 75 -63 7 0 1 7 -12 16 -14 10 -48 38 -76
63 -28 26 -22 19 13 -16z"/>
<path d="M4000 6744 c-12 -30 -5 -63 23 -119 21 -42 97 -123 97 -104 0 6 -19
28 -42 49 -24 21 -40 42 -35 46 4 4 23 -8 42 -26 19 -18 37 -31 40 -28 3 3
-12 21 -35 40 -22 19 -40 38 -40 43 0 4 7 2 15 -5 23 -19 18 4 -5 25 -11 10
-20 24 -20 32 0 7 -5 13 -11 13 -7 0 -10 12 -7 30 6 37 -9 39 -22 4z"/>
<path d="M2817 6744 c5 -13 3 -15 -8 -9 -8 5 -11 5 -6 -1 5 -5 12 -9 15 -9 4
0 13 -4 20 -9 11 -7 12 -4 3 12 -14 27 -33 39 -24 16z"/>
<path d="M3961 6649 c1 -13 -2 -42 -6 -64 -5 -31 -3 -44 9 -54 22 -18 49 -10
56 18 5 23 6 23 42 -17 20 -22 39 -50 43 -62 4 -12 9 -20 11 -17 10 10 -17 58
-60 106 -25 29 -46 57 -46 64 0 7 -7 22 -16 33 -8 10 -12 12 -8 4 7 -13 5 -13
-9 -1 -15 12 -17 11 -16 -10z"/>
<path d="M4100 6638 c0 -9 7 -22 17 -29 15 -13 15 -12 3 11 -17 34 -20 36 -20
18z"/>
<path d="M3819 6624 c-9 -11 -9 -23 -1 -53 15 -47 44 -75 71 -66 19 6 19 6 -1
51 -11 25 -28 54 -38 64 -16 16 -20 17 -31 4z"/>
<path d="M3881 6624 c0 -11 3 -14 6 -6 3 7 2 16 -1 19 -3 4 -6 -2 -5 -13z"/>
<path d="M2890 6616 c0 -2 19 -15 43 -30 l42 -27 -35 30 c-32 27 -50 38 -50
27z"/>
<path d="M2247 6599 c7 -7 15 -10 18 -7 3 3 -2 9 -12 12 -14 6 -15 5 -6 -5z"/>
<path d="M2920 6566 c0 -2 8 -10 18 -17 15 -13 16 -12 3 4 -13 16 -21 21 -21
13z"/>
<path d="M3910 6560 c0 -9 7 -26 16 -39 16 -22 16 -24 -5 -40 -20 -16 -21 -19
-7 -30 9 -8 16 -21 17 -30 0 -9 3 -11 5 -4 3 7 0 22 -6 35 -11 22 -10 22 9 -2
18 -23 20 -23 27 -7 4 10 1 28 -5 40 -7 12 -21 38 -32 57 -10 19 -19 28 -19
20z"/>
<path d="M2897 6529 c12 -15 73 -53 73 -46 0 2 -19 17 -42 32 -24 16 -38 22
-31 14z"/>
<path d="M2940 6526 c0 -3 9 -10 20 -16 11 -6 20 -8 20 -6 0 3 -9 10 -20 16
-11 6 -20 8 -20 6z"/>
<path d="M4020 6517 c0 -3 7 -21 15 -40 8 -20 16 -49 16 -64 1 -19 3 -22 6 -9
6 21 -15 104 -28 112 -5 3 -9 3 -9 1z"/>
<path d="M4010 6470 c6 -11 12 -20 14 -20 2 0 2 9 -1 20 -3 11 -9 20 -15 20
-5 0 -4 -9 2 -20z"/>
<path d="M2930 6477 c0 -3 12 -12 26 -22 15 -9 23 -12 20 -6 -7 11 -46 35 -46
28z"/>
<path d="M3870 6463 c0 -5 7 -18 15 -29 13 -18 14 -18 8 4 -5 22 -23 41 -23
25z"/>
<path d="M2782 6444 c10 -10 20 -16 22 -13 3 3 -5 11 -17 18 -21 13 -21 12 -5
-5z"/>
<path d="M4081 6424 c0 -11 3 -14 6 -6 3 7 2 16 -1 19 -3 4 -6 -2 -5 -13z"/>
<path d="M3993 6385 c0 -22 2 -30 4 -17 2 12 2 30 0 40 -3 9 -5 -1 -4 -23z"/>
<path d="M2334 6396 c11 -9 24 -16 30 -16 12 0 7 5 -24 19 -24 11 -24 11 -6
-3z"/>
<path d="M2630 6406 c0 -2 8 -10 18 -17 15 -13 16 -12 3 4 -13 16 -21 21 -21
13z"/>
<path d="M3961 6380 c0 -33 1 -34 11 -12 8 17 8 26 0 34 -9 9 -12 4 -11 -22z"/>
<path d="M2013 6315 c15 -14 32 -25 38 -25 17 0 9 8 -28 29 l-38 22 28 -26z"/>
<path d="M3935 6327 c-11 -7 -22 -13 -24 -14 -12 -7 35 -43 56 -43 21 0 23 4
18 23 -11 36 -27 47 -50 34z"/>
<path d="M4008 6260 c9 -21 18 -35 20 -30 3 9 -25 70 -33 70 -2 0 4 -18 13
-40z"/>
<path d="M3986 6212 c5 -33 2 -48 -13 -64 -13 -16 -14 -20 -3 -16 24 7 35 52
22 90 -11 33 -11 32 -6 -10z"/>
<path d="M2330 6237 c0 -3 12 -12 26 -22 15 -9 23 -12 20 -6 -7 11 -46 35 -46
28z"/>
<path d="M1810 6208 c0 -8 11 -37 25 -63 14 -28 20 -52 15 -55 -18 -11 58
-105 136 -169 43 -35 99 -83 124 -105 25 -23 12 -8 -30 32 -41 40 -103 99
-137 131 -35 32 -63 63 -63 69 0 6 32 -20 71 -59 40 -38 74 -67 77 -64 3 2 -1
12 -9 21 -13 16 -12 16 11 4 l25 -13 -24 27 c-28 30 -33 32 -25 11 12 -29 -15
-14 -66 38 -30 30 -68 85 -91 131 -21 43 -39 72 -39 64z m70 -139 c0 -6 -4 -7
-10 -4 -5 3 -10 11 -10 16 0 6 5 7 10 4 6 -3 10 -11 10 -16z"/>
<path d="M1961 6181 c-15 -10 34 -56 82 -76 20 -8 37 -13 37 -10 0 2 -15 11
-32 19 -18 7 -44 26 -58 40 l-25 27 48 -26 c26 -15 50 -25 55 -23 4 1 -16 15
-44 29 -29 15 -57 23 -63 20z"/>
<path d="M2445 6171 c-17 -7 -14 -11 25 -29 25 -12 34 -19 20 -16 -36 9 -23 0
35 -25 30 -12 42 -15 31 -6 -11 8 -24 15 -30 15 -5 0 -6 3 -2 7 4 4 -10 18
-31 31 -29 18 -32 22 -13 17 19 -5 22 -4 10 4 -17 12 -18 12 -45 2z"/>
<path d="M2327 6075 c10 -13 22 -25 27 -25 5 0 -1 11 -14 25 -30 32 -36 32
-13 0z"/>
<path d="M2025 6080 c-3 -5 8 -16 24 -25 43 -22 52 -18 11 5 l-35 20 30 -6
c23 -4 26 -3 15 5 -19 13 -37 14 -45 1z"/>
<path d="M3396 6055 c-16 -33 -16 -37 2 -78 10 -23 34 -56 51 -72 18 -17 46
-43 62 -60 36 -36 36 -30 4 31 -14 26 -26 65 -27 88 l-1 41 -6 -45 -7 -45 -8
50 c-12 80 -15 84 -12 15 3 -65 2 -65 -12 -31 -9 23 -12 51 -8 80 5 37 4 42
-5 27 -6 -10 -9 -38 -6 -64 4 -35 2 -41 -5 -28 -6 10 -8 43 -5 72 3 30 4 54 2
54 -1 0 -10 -16 -19 -35z"/>
<path d="M2550 6065 c19 -7 34 -17 33 -22 -1 -5 15 -18 35 -27 l37 -18 -24 25
c-25 28 -80 57 -103 56 -7 0 3 -6 22 -14z"/>
<path d="M1996 6062 c-3 -5 1 -9 9 -9 8 0 12 4 9 9 -3 4 -7 8 -9 8 -2 0 -6 -4
-9 -8z"/>
<path d="M2035 6040 c7 -11 65 -43 65 -36 0 2 -16 13 -36 25 -19 12 -32 16
-29 11z"/>
<path d="M2382 6024 c10 -10 20 -16 22 -13 3 3 -5 11 -17 18 -21 13 -21 12 -5
-5z"/>
<path d="M1860 6015 c8 -11 30 -37 49 -57 32 -35 33 -54 1 -25 -11 9 -11 8 0
-7 9 -11 11 -21 5 -22 -5 -2 54 -69 133 -149 78 -80 140 -150 137 -155 -3 -5
0 -12 6 -16 8 -4 9 -3 5 4 -11 19 -3 15 67 -32 36 -24 103 -59 149 -76 73 -29
93 -33 167 -31 47 1 91 6 99 10 7 4 -22 6 -66 3 -84 -5 -137 2 -127 17 2 5
-12 12 -33 17 l-37 7 30 7 30 8 -30 2 c-28 3 -27 3 10 11 34 7 31 7 -19 4 -57
-4 -68 8 -16 18 23 4 22 4 -5 6 -23 1 -27 3 -15 11 12 7 8 10 -15 10 -16 0
-48 5 -69 11 -29 8 -36 13 -25 20 12 7 12 9 -1 9 -12 0 -12 2 -2 8 9 6 6 11
-11 19 -17 8 -24 19 -23 35 1 13 -5 31 -13 41 -14 16 -13 17 5 11 12 -5 7 3
-12 19 -51 43 -77 32 -29 -13 14 -13 23 -26 20 -28 -3 -3 2 -14 12 -24 9 -10
12 -18 7 -18 -6 0 -28 19 -49 42 -22 23 -31 35 -19 25 31 -26 41 -21 14 8 -12
13 -26 22 -30 20 -4 -2 -20 9 -36 26 -16 17 -59 50 -95 74 -36 24 -92 72 -124
107 -33 34 -53 54 -45 43z"/>
<path d="M1770 6016 c0 -2 8 -10 18 -17 15 -13 16 -12 3 4 -13 16 -21 21 -21
13z"/>
<path d="M2750 6015 c0 -2 15 -12 33 -20 l32 -16 -25 20 c-24 20 -40 26 -40
16z"/>
<path d="M1840 5993 c0 -5 9 -18 20 -28 11 -10 20 -14 20 -8 0 5 -9 18 -20 28
-11 10 -20 14 -20 8z"/>
<path d="M2655 5982 c16 -13 67 -33 61 -23 -3 5 -20 14 -38 20 -18 6 -28 8
-23 3z"/>
<path d="M3640 5976 c0 -12 29 -76 34 -76 3 0 -2 17 -11 38 -16 38 -23 50 -23
38z"/>
<path d="M3511 5945 c0 -34 49 -139 64 -137 6 1 20 -18 32 -41 31 -58 28 -42
-6 39 -15 38 -31 78 -35 88 -3 10 -9 16 -12 14 -3 -3 2 -23 11 -43 8 -21 13
-40 11 -43 -7 -6 -45 73 -55 115 -8 36 -9 36 -10 8z"/>
<path d="M1836 5947 c3 -10 9 -15 12 -12 3 3 0 11 -7 18 -10 9 -11 8 -5 -6z"/>
<path d="M2801 5956 c2 -2 15 -9 29 -15 24 -11 24 -11 6 3 -16 13 -49 24 -35
12z"/>
<path d="M2840 5915 c0 -7 61 -37 66 -33 2 3 -12 12 -31 21 -19 9 -35 15 -35
12z"/>
<path d="M2060 5900 c0 -5 10 -15 23 -21 22 -12 22 -12 3 10 -21 23 -26 26
-26 11z"/>
<path d="M3580 5897 c0 -7 7 -22 15 -33 13 -17 14 -16 4 14 -11 33 -19 41 -19
19z"/>
<path d="M2934 5862 c-9 -5 -8 -10 2 -19 8 -8 15 -9 19 -3 3 6 0 10 -7 10 -9
0 -9 3 2 10 8 5 11 10 5 10 -5 0 -15 -4 -21 -8z"/>
<path d="M2974 5835 c-10 -8 -14 -14 -9 -14 6 0 19 6 29 14 11 8 15 15 10 15
-6 0 -19 -7 -30 -15z"/>
<path d="M3721 5847 c-1 -4 5 -18 13 -30 8 -12 31 -60 51 -106 40 -96 102
-201 116 -201 5 0 -9 27 -32 61 -22 34 -58 100 -78 148 -34 82 -69 146 -70
128z"/>
<path d="M3611 5835 c0 -5 6 -21 14 -35 8 -14 14 -20 14 -15 0 6 -6 21 -14 35
-8 14 -14 21 -14 15z"/>
<path d="M1880 5827 c0 -2 24 -24 53 -48 28 -24 46 -36 38 -26 -16 20 -91 81
-91 74z"/>
<path d="M2706 5808 c13 -43 23 -68 28 -68 3 0 -2 20 -11 45 -15 45 -31 65
-17 23z"/>
<path d="M2736 5787 c9 -26 20 -49 24 -52 9 -6 -22 80 -33 91 -4 4 0 -14 9
-39z"/>
<path d="M2770 5821 c0 -6 12 -34 26 -62 14 -28 23 -53 20 -56 -3 -3 -19 23
-36 58 -16 35 -27 53 -24 39 9 -37 48 -104 59 -103 6 1 16 -4 24 -10 7 -6 -4
22 -24 63 -43 85 -45 88 -45 71z"/>
<path d="M2800 5817 c0 -5 19 -45 42 -89 32 -63 43 -76 50 -64 5 9 6 26 3 39
-6 21 -6 21 9 3 19 -23 21 -14 5 16 -9 17 -13 18 -20 7 -7 -12 -9 -11 -9 1 0
8 -11 29 -25 45 -14 17 -22 22 -19 13 9 -28 -4 -21 -20 10 -8 15 -15 23 -16
19z m71 -93 c27 -60 18 -68 -10 -9 -22 47 -24 55 -15 55 3 0 14 -21 25 -46z"/>
<path d="M2290 5784 c0 -13 113 -123 122 -118 5 3 18 -2 29 -12 10 -9 21 -15
24 -13 2 3 -11 17 -30 32 -20 16 -35 22 -35 15 0 -6 -16 3 -35 22 -19 18 -32
36 -30 40 3 5 -6 15 -20 24 -14 9 -25 14 -25 10z"/>
<path d="M2572 5764 c9 -10 32 -28 50 -38 39 -22 29 -11 -27 29 -23 17 -33 21
-23 9z"/>
<path d="M3674 5749 c4 -13 11 -39 16 -58 5 -19 13 -37 18 -40 6 -3 28 -45 50
-93 23 -49 43 -88 47 -88 3 0 -3 17 -13 38 -11 20 -27 62 -36 92 -20 65 -36
100 -53 118 -7 7 -13 20 -13 27 0 8 -5 17 -12 21 -8 5 -9 0 -4 -17z"/>
<path d="M2926 5747 c3 -10 9 -15 12 -12 3 3 0 11 -7 18 -10 9 -11 8 -5 -6z"/>
<path d="M3651 5734 c0 -11 3 -14 6 -6 3 7 2 16 -1 19 -3 4 -6 -2 -5 -13z"/>
<path d="M2040 5733 c0 -12 38 -48 45 -41 3 2 -6 15 -20 28 -14 13 -25 19 -25
13z"/>
<path d="M2463 5733 c4 -6 1 -13 -5 -15 -8 -3 -3 -10 12 -18 14 -7 46 -33 73
-57 46 -43 136 -93 167 -93 8 0 -11 11 -42 24 -74 30 -170 106 -165 130 1 5
-9 16 -23 25 -13 9 -21 11 -17 4z m32 -23 c3 -6 -1 -7 -9 -4 -18 7 -21 14 -7
14 6 0 13 -4 16 -10z"/>
<path d="M2966 5725 c3 -11 7 -32 9 -46 1 -15 18 -50 39 -79 21 -29 35 -54 32
-57 -2 -3 -18 14 -35 38 -17 23 -31 37 -31 31 0 -6 5 -14 11 -17 5 -4 8 -12 6
-18 -2 -7 5 -25 15 -40 18 -25 21 -26 32 -12 11 15 13 14 30 -4 15 -16 16 -21
5 -21 -24 -1 43 -50 111 -81 36 -17 75 -40 88 -51 28 -27 28 -19 1 35 -28 55
-87 125 -146 173 l-48 39 28 -38 c30 -39 27 -48 -7 -20 -12 10 -8 3 9 -15 22
-25 25 -31 11 -26 -13 5 -17 4 -13 -3 4 -6 1 -13 -5 -16 -7 -2 9 -18 36 -35
28 -18 45 -32 39 -32 -5 0 -29 14 -52 30 -34 25 -40 34 -32 49 8 14 5 23 -13
40 -12 12 -25 18 -29 15 -9 -9 -80 103 -73 115 4 6 0 23 -9 38 -9 16 -13 19
-9 8z m59 -175 c10 -11 16 -20 13 -20 -3 0 -13 9 -23 20 -10 11 -16 20 -13 20
3 0 13 -9 23 -20z m61 -11 c19 -22 19 -22 -3 -10 -13 6 -23 16 -23 21 0 15 5
12 26 -11z"/>
<path d="M3600 5739 c0 -3 7 -27 17 -54 13 -40 18 -46 24 -30 11 29 10 42 -2
25 -8 -12 -9 -8 -5 15 3 17 3 24 -1 16 -4 -10 -9 -8 -19 10 -7 13 -13 21 -14
18z"/>
<path d="M2940 5681 c0 -6 4 -13 10 -16 6 -3 7 1 4 9 -7 18 -14 21 -14 7z"/>
<path d="M2108 5665 c5 -11 22 -31 37 -45 23 -21 26 -21 17 -5 -5 11 -22 31
-37 45 -23 21 -26 21 -17 5z"/>
<path d="M3671 5664 c0 -11 3 -14 6 -6 3 7 2 16 -1 19 -3 4 -6 -2 -5 -13z"/>
<path d="M2070 5666 c0 -2 8 -10 18 -17 15 -13 16 -12 3 4 -13 16 -21 21 -21
13z"/>
<path d="M2298 5653 c7 -3 16 -2 19 1 4 3 -2 6 -13 5 -11 0 -14 -3 -6 -6z"/>
<path d="M2941 5640 c14 -31 19 -36 19 -24 0 6 -7 19 -16 30 -14 18 -14 18 -3
-6z"/>
<path d="M3655 5585 c2 -70 23 -155 39 -155 3 0 -1 15 -8 33 -8 17 -17 48 -20
67 -5 28 -1 23 23 -27 28 -59 43 -74 55 -55 3 5 -1 30 -9 58 -7 27 -14 42 -15
34 -1 -11 -4 -9 -10 5 -6 14 -9 15 -10 5 -1 -8 -12 14 -24 50 l-23 65 2 -80z"/>
<path d="M2592 5634 c10 -10 20 -15 24 -12 3 4 -5 12 -18 18 -22 12 -22 12 -6
-6z"/>
<path d="M2906 5632 c-3 -5 1 -9 9 -9 8 0 12 4 9 9 -3 4 -7 8 -9 8 -2 0 -6 -4
-9 -8z"/>
<path d="M2485 5600 c10 -11 20 -20 23 -20 3 0 -3 9 -13 20 -10 11 -20 20 -23
20 -3 0 3 -9 13 -20z"/>
<path d="M2640 5610 c8 -5 20 -10 25 -10 6 0 3 5 -5 10 -8 5 -19 10 -25 10 -5
0 -3 -5 5 -10z"/>
<path d="M3712 5595 c0 -16 2 -22 5 -12 2 9 2 23 0 30 -3 6 -5 -1 -5 -18z"/>
<path d="M2318 5603 c7 -3 16 -2 19 1 4 3 -2 6 -13 5 -11 0 -14 -3 -6 -6z"/>
<path d="M3129 5597 c8 -10 28 -28 45 -40 23 -16 27 -17 17 -4 -8 10 -28 28
-45 40 -23 16 -27 17 -17 4z"/>
<path d="M3691 5584 c0 -11 3 -14 6 -6 3 7 2 16 -1 19 -3 4 -6 -2 -5 -13z"/>
<path d="M2650 5520 c8 -5 20 -10 25 -10 6 0 3 5 -5 10 -8 5 -19 10 -25 10 -5
0 -3 -5 5 -10z"/>
<path d="M3210 5523 c0 -6 7 -16 15 -23 8 -7 31 -39 51 -71 46 -76 56 -77 14
-1 -33 59 -80 115 -80 95z"/>
<path d="M2488 5503 c6 -2 18 -2 25 0 6 3 1 5 -13 5 -14 0 -19 -2 -12 -5z"/>
<path d="M2558 5493 c6 -2 18 -2 25 0 6 3 1 5 -13 5 -14 0 -19 -2 -12 -5z"/>
<path d="M3270 5494 c0 -11 84 -133 88 -129 5 4 -77 135 -84 135 -2 0 -4 -3
-4 -6z"/>
<path d="M2543 5473 c20 -2 54 -2 75 0 20 2 3 4 -38 4 -41 0 -58 -2 -37 -4z"/>
<path d="M2850 5456 c0 -2 12 -12 28 -21 l27 -18 -19 21 c-17 20 -36 29 -36
18z"/>
<path d="M2562 5431 c30 -20 190 -53 217 -45 25 7 24 8 -14 15 -22 4 -60 9
-85 10 l-45 2 55 7 55 7 -75 2 c-41 0 -86 4 -100 7 -20 4 -22 3 -8 -5z"/>
<path d="M2948 5409 c7 -8 17 -15 23 -15 5 -1 10 -2 12 -4 7 -5 38 -7 32 -2
-4 4 -11 8 -16 8 -5 1 -11 3 -14 4 -3 1 -8 3 -12 4 -5 1 -15 5 -23 10 -12 7
-13 7 -2 -5z"/>
<path d="M2798 5373 c6 -2 18 -2 25 0 6 3 1 5 -13 5 -14 0 -19 -2 -12 -5z"/>
<path d="M870 3835 l0 -1105 285 0 285 0 0 1105 0 1105 -285 0 -285 0 0 -1105z"/>
<path d="M1670 3840 l0 -1100 275 0 275 0 2 677 3 676 319 -396 c176 -219 322
-397 325 -397 3 1 150 179 326 396 l320 394 3 -675 2 -675 273 2 272 3 2 1082
c2 595 0 1089 -3 1098 -5 13 -39 15 -245 15 l-239 0 -352 -440 c-194 -242
-355 -440 -359 -440 -4 0 -166 198 -359 440 l-352 440 -244 0 -244 0 0 -1100z"/>
<path d="M4290 3840 l0 -1100 750 0 750 0 0 205 0 205 -475 0 -475 0 0 265 0
265 440 0 440 0 0 200 0 200 -440 0 -440 0 0 225 0 225 460 0 460 0 0 205 0
205 -735 0 -735 0 0 -1100z"/>
<path d="M1706 2456 c-63 -18 -106 -60 -113 -114 -12 -88 29 -126 182 -168
104 -29 145 -55 145 -94 0 -57 -50 -90 -137 -90 -74 0 -119 26 -140 80 -14 35
-19 39 -42 33 -14 -3 -28 -7 -29 -9 -12 -9 15 -72 44 -104 42 -46 99 -64 192
-58 109 6 172 62 172 153 0 79 -47 117 -190 155 -100 26 -116 34 -131 61 -14
28 4 72 38 90 13 7 48 13 77 13 62 0 103 -22 119 -65 9 -24 17 -29 44 -29 37
0 39 6 19 53 -19 47 -67 84 -126 96 -61 13 -62 13 -124 -3z"/>
<path d="M4272 2460 c-117 -24 -192 -127 -192 -264 0 -161 99 -266 249 -266
81 0 133 22 182 77 48 53 64 102 63 193 0 85 -22 146 -70 194 -55 55 -150 82
-232 66z m107 -60 c72 -20 131 -112 131 -205 0 -60 -29 -132 -65 -164 -125
-110 -295 -21 -295 155 0 114 37 181 115 209 48 17 70 18 114 5z"/>
<path d="M880 2195 l0 -265 35 0 35 0 0 265 0 265 -35 0 -35 0 0 -265z"/>
<path d="M1070 2195 l0 -265 30 0 30 0 2 208 3 207 139 -207 c135 -201 140
-208 173 -208 l33 0 0 266 0 265 -32 -3 -33 -3 -5 -199 -5 -199 -134 201
c-130 196 -135 202 -167 202 l-34 0 0 -265z"/>
<path d="M2037 2454 c-4 -4 -7 -18 -7 -30 0 -22 4 -23 88 -26 l87 -3 3 -232 2
-233 30 0 30 0 2 233 3 232 88 3 88 3 -3 27 -3 27 -201 3 c-110 1 -203 -1
-207 -4z"/>
<path d="M2520 2195 l0 -265 35 0 35 0 0 265 0 265 -35 0 -35 0 0 -265z"/>
<path d="M2670 2430 l0 -30 85 0 85 0 2 -232 3 -233 33 -3 32 -3 0 235 0 236
85 0 85 0 0 30 0 30 -205 0 -205 0 0 -30z"/>
<path d="M3152 2258 c3 -193 4 -205 27 -245 33 -58 86 -83 176 -83 86 0 145
26 177 78 22 35 23 49 26 245 l4 208 -34 -3 -33 -3 -5 -203 -5 -204 -33 -29
c-28 -25 -40 -29 -90 -29 -127 0 -142 30 -142 283 l0 187 -36 0 -36 0 4 -202z"/>
<path d="M3630 2431 l0 -30 88 -3 87 -3 3 -232 2 -233 30 0 30 0 2 233 3 232
88 3 88 3 -3 27 -3 27 -207 3 -208 2 0 -29z"/>
<path d="M4870 2195 l0 -268 128 5 c180 8 229 31 273 131 18 41 23 70 22 137
0 93 -12 134 -58 188 -47 56 -75 64 -227 70 l-138 5 0 -268z m288 177 c47 -34
66 -85 66 -177 0 -62 -5 -89 -22 -122 -31 -60 -66 -75 -176 -77 l-91 -1 -3
190 c-1 104 0 196 3 204 9 23 184 10 223 -17z"/>
<path d="M5360 2195 l0 -265 193 2 192 3 3 28 3 27 -160 0 -161 0 0 90 0 89
143 3 142 3 3 28 3 27 -145 0 -146 0 0 85 0 85 156 0 155 0 -3 28 -3 27 -187
3 -188 2 0 -265z"/>
<path d="M3740 1874 c-25 -57 -25 -54 3 -54 15 0 34 13 53 38 49 61 50 62 5
62 -38 0 -41 -2 -61 -46z"/>
<path d="M4979 1791 c-137 -27 -218 -164 -190 -320 28 -148 98 -211 236 -211
100 0 169 44 205 130 11 27 11 33 -1 41 -31 19 -54 9 -74 -34 -39 -81 -140
-107 -224 -56 -74 45 -102 215 -50 310 60 110 210 117 271 13 18 -30 25 -35
47 -29 35 9 36 10 21 45 -20 49 -81 96 -139 109 -29 6 -55 10 -59 10 -4 -1
-23 -4 -43 -8z"/>
<path d="M870 1525 l0 -266 33 3 32 3 5 213 5 214 44 -134 c24 -73 57 -170 73
-215 28 -77 32 -83 58 -83 26 0 30 6 66 108 21 59 55 154 75 212 l38 105 3
-210 3 -210 33 -3 32 -3 0 266 0 266 -46 -3 -47 -3 -75 -218 c-41 -120 -78
-215 -81 -212 -3 4 -38 102 -77 218 l-71 212 -51 3 -52 3 0 -266z"/>
<path d="M1641 1763 c-6 -16 -49 -129 -97 -253 -47 -124 -88 -231 -91 -238 -4
-10 4 -13 32 -10 37 3 38 4 64 78 l27 75 114 0 114 0 29 -77 c29 -76 30 -78
63 -78 21 0 34 5 34 13 0 6 -46 126 -102 264 l-103 253 -36 0 c-31 0 -38 -5
-48 -27z m82 -133 c19 -52 40 -107 46 -122 l11 -28 -89 0 -89 0 42 124 c22 67
42 123 43 122 1 -1 17 -44 36 -96z"/>
<path d="M1930 1760 l0 -30 85 0 85 0 0 -236 0 -235 33 3 32 3 3 233 2 232 85
0 85 0 0 30 0 30 -205 0 -205 0 0 -30z"/>
<path d="M2440 1525 l0 -265 195 0 195 0 0 30 0 30 -160 0 -160 0 0 90 0 89
143 3 142 3 3 28 3 27 -145 0 -146 0 0 85 0 85 155 0 155 0 0 30 0 30 -190 0
-190 0 0 -265z"/>
<path d="M2952 1528 l3 -263 30 0 30 0 5 214 5 215 24 -75 c13 -41 46 -138 73
-216 48 -138 51 -143 78 -143 31 0 28 -8 130 290 24 69 47 130 52 135 6 7 9 7
8 0 -2 -5 -2 -103 -1 -217 l1 -208 30 0 30 0 0 266 0 265 -46 -3 -47 -3 -75
-218 c-41 -120 -77 -216 -79 -213 -3 2 -37 100 -77 218 l-73 213 -51 3 -52 3
2 -263z"/>
<path d="M3636 1539 c-53 -137 -96 -257 -96 -265 0 -11 9 -14 31 -12 29 3 34
8 59 78 l28 75 113 0 113 0 26 -65 c14 -36 29 -71 33 -77 9 -14 81 -18 75 -5
-1 5 -50 124 -108 265 l-104 257 -37 0 -36 0 -97 -251z m147 149 c8 -24 29
-80 46 -125 l30 -83 -88 0 -89 0 42 125 c22 68 42 124 43 125 0 0 8 -19 16
-42z"/>
<path d="M4060 1761 l0 -30 88 -3 87 -3 2 -230 2 -230 30 -3 31 -3 2 233 3
233 88 3 88 3 -3 27 -3 27 -207 3 -208 2 0 -29z"/>
<path d="M4580 1525 l0 -265 35 0 35 0 0 265 0 265 -35 0 -35 0 0 -265z"/>
<path d="M5485 1748 c-9 -24 -52 -135 -95 -248 -43 -113 -82 -213 -86 -223 -6
-16 -2 -18 31 -15 37 3 38 4 64 78 l26 75 114 0 114 0 30 -77 c29 -76 31 -78
64 -78 25 0 33 4 32 18 0 9 -46 127 -102 262 l-102 245 -36 3 c-34 3 -37 1
-54 -40z m88 -118 c19 -52 40 -107 46 -122 l11 -28 -91 0 c-83 0 -90 2 -84 18
4 9 24 65 44 123 20 58 37 106 38 105 1 -1 17 -44 36 -96z"/>
<path d="M3690 1210 c-26 -50 -25 -60 3 -60 21 0 33 11 85 82 12 16 10 18 -27
18 -37 0 -42 -3 -61 -40z"/>
<path d="M2190 1121 c-80 -16 -130 -68 -130 -136 0 -82 44 -118 189 -155 97
-24 117 -35 131 -71 15 -34 -7 -80 -45 -97 -33 -15 -129 -16 -158 -1 -38 20
-66 51 -72 81 -5 21 -11 28 -22 24 -8 -3 -21 -6 -29 -6 -39 0 6 -102 62 -140
34 -22 48 -25 135 -25 109 0 132 10 177 76 19 28 23 43 19 83 -4 41 -11 55
-40 82 -19 18 -55 38 -79 44 -180 46 -218 69 -204 125 10 38 49 58 116 58 68
0 106 -20 122 -64 8 -24 15 -29 43 -29 33 0 33 0 24 33 -13 46 -40 79 -80 99
-42 20 -112 28 -159 19z"/>
<path d="M3969 1121 c-49 -10 -103 -45 -117 -76 -17 -37 -15 -107 4 -133 22
-31 77 -57 173 -82 97 -24 117 -35 131 -71 15 -34 -7 -80 -45 -97 -33 -15
-129 -16 -158 -1 -38 20 -66 51 -72 80 -6 25 -10 28 -33 23 -36 -9 -35 -8 -28
-49 9 -47 64 -101 118 -116 65 -17 181 -8 214 17 52 38 69 71 69 131 0 79 -36
110 -173 148 -57 15 -114 36 -127 47 -48 38 -21 102 50 118 76 18 143 -6 165
-59 10 -26 18 -31 46 -31 32 0 32 1 23 33 -13 46 -40 79 -80 99 -42 20 -112
28 -160 19z"/>
<path d="M5042 1119 c-91 -17 -154 -74 -182 -163 -20 -64 -9 -191 23 -253 39
-76 89 -107 183 -111 40 -2 88 1 106 7 44 15 96 65 119 116 17 37 17 40 1 47
-36 14 -52 8 -66 -25 -41 -100 -177 -125 -255 -46 -80 80 -66 296 23 350 76
46 177 28 218 -40 12 -20 22 -37 24 -39 1 -2 13 0 28 4 33 8 33 29 1 76 -41
61 -137 94 -223 77z"/>
<path d="M875 1107 c-3 -7 -4 -125 -3 -262 l3 -250 193 -3 192 -2 0 30 0 29
-157 3 -158 3 -3 88 -3 87 146 0 145 0 0 30 0 29 -142 3 -143 3 -3 83 -3 82
156 0 155 0 0 30 0 30 -185 0 c-141 0 -187 -3 -190 -13z"/>
<path d="M1610 855 l0 -265 195 0 195 0 0 30 0 30 -160 0 -160 0 0 90 0 89
143 3 142 3 3 28 3 27 -145 0 -146 0 0 85 0 85 156 0 155 0 -3 28 -3 27 -187
3 -188 2 0 -265z"/>
<path d="M2470 1090 l0 -30 85 0 85 0 2 -232 3 -233 33 -3 32 -3 0 235 0 236
85 0 85 0 0 30 0 30 -205 0 -205 0 0 -30z"/>
<path d="M3003 1103 c-3 -10 -48 -127 -100 -261 -51 -134 -93 -245 -93 -247 0
-3 15 -5 34 -5 34 0 35 1 63 80 l28 80 113 -2 114 -3 30 -77 c29 -76 30 -78
64 -78 21 0 34 5 34 13 -1 6 -47 125 -103 262 l-102 250 -38 3 c-29 3 -39 -1
-44 -15z m49 -291 c-47 -2 -86 -1 -88 1 -3 2 11 44 29 93 19 49 38 105 42 123
7 33 10 29 54 -90 l47 -124 -84 -3z"/>
<path d="M3220 1091 l0 -30 88 -3 87 -3 3 -232 2 -233 30 0 30 0 2 233 3 232
88 3 88 3 -3 27 -3 27 -207 3 -208 2 0 -29z"/>
<path d="M3685 1107 c-3 -7 -4 -125 -3 -262 l3 -250 33 -3 32 -3 0 265 0 266
-30 0 c-17 0 -33 -6 -35 -13z"/>
<path d="M4250 1090 l0 -30 85 0 85 0 2 -232 3 -233 33 -3 32 -3 0 235 0 236
85 0 85 0 0 30 0 30 -205 0 -205 0 0 -30z"/>
<path d="M4710 855 l0 -265 35 0 35 0 0 265 0 265 -35 0 -35 0 0 -265z"/>
<path d="M5495 1103 c-4 -10 -47 -121 -95 -248 -49 -126 -92 -238 -96 -248 -6
-16 -2 -18 31 -15 37 3 38 4 64 78 l26 75 114 0 114 0 30 -77 c29 -76 31 -78
64 -78 20 0 33 5 33 13 0 13 -180 460 -201 498 -13 25 -74 26 -84 2z m69 -119
c13 -38 33 -93 45 -121 l21 -53 -91 0 c-83 0 -90 2 -84 18 4 9 24 65 44 123
20 58 37 105 39 104 1 -1 13 -33 26 -71z"/>
</g>
</svg>
